SplineFontDB: 3.2
FontName: RivieraRegular
FullName: Riviera
FamilyName: Riviera
Weight: Regular
Copyright: 
Version: Version 1.003;Fontself Maker 2.2.1
ItalicAngle: 0
UnderlinePosition: 0
UnderlineWidth: 0
Ascent: 800
Descent: 200
InvalidEm: 0
sfntRevision: 0x00010000
LayerCount: 2
Layer: 0 0 "Back" 1
Layer: 1 0 "Fore" 0
XUID: [1021 500 -1623361941 12286]
StyleMap: 0x0040
FSType: 0
OS2Version: 4
OS2_WeightWidthSlopeOnly: 0
OS2_UseTypoMetrics: 0
CreationTime: 1518778813
ModificationTime: 1645537316
PfmFamily: 81
TTFWeight: 400
TTFWidth: 5
LineGap: 0
VLineGap: 0
Panose: 0 0 0 0 0 0 0 0 0 0
OS2TypoAscent: 950
OS2TypoAOffset: 0
OS2TypoDescent: -200
OS2TypoDOffset: 0
OS2TypoLinegap: 0
OS2WinAscent: 954
OS2WinAOffset: 0
OS2WinDescent: 196
OS2WinDOffset: 0
HheadAscent: 950
HheadAOffset: 0
HheadDescent: -200
HheadDOffset: 0
OS2SubXSize: 650
OS2SubYSize: 699
OS2SubXOff: 0
OS2SubYOff: 140
OS2SupXSize: 650
OS2SupYSize: 699
OS2SupXOff: 0
OS2SupYOff: 479
OS2StrikeYSize: 49
OS2StrikeYPos: 258
OS2CapHeight: 689
OS2XHeight: 685
OS2Vendor: 'XXXX'
OS2CodePages: 00000001.00000000
OS2UnicodeRanges: 00000003.00000000.00000000.00000000
Lookup: 258 0 0 "'kern' Horizontal Kerning in Latin lookup 0" { "'kern' Horizontal Kerning in Latin lookup 0-1" [150,15,0] } ['kern' ('DFLT' <'dflt' > 'latn' <'dflt' > ) ]
MarkAttachClasses: 1
DEI: 91125
KernClass2: 2 2 "'kern' Horizontal Kerning in Latin lookup 0-1"
 3 A a
 3 T t
 0 {} 0 {} 0 {} -150 {}
LangName: 1033 "" "" "" "1.003;RivieraRegular" "" "Version 1.003;Fontself Maker 2.2.1" "" "" "" "" "" "" "" "" "" "" "Riviera" "Regular"
Encoding: UnicodeBmp
UnicodeInterp: none
NameList: AGL For New Fonts
DisplaySize: -48
AntiAlias: 1
FitToEm: 0
WinInfo: 64 16 4
BeginPrivate: 0
EndPrivate
BeginChars: 65536 92

StartChar: exclam
Encoding: 33 33 4
Width: 224
Flags: W
LayerCount: 2
Fore
SplineSet
114.856445312 -104.458984375 m 0
 82.0224609375 -104.458984375 55.4052734375 -77.841796875 55.4052734375 -45.0078125 c 0
 55.4052734375 -12.173828125 82.0224609375 14.443359375 114.856445312 14.443359375 c 0
 147.690429688 14.443359375 174.307617188 -12.173828125 174.307617188 -45.0078125 c 0
 174.307617188 -77.841796875 147.690429688 -104.458984375 114.856445312 -104.458984375 c 0
109.452148438 73.896484375 m 0
 76.61328125 73.896484375 50.0009765625 100.520507812 50.0009765625 133.348632812 c 2
 50.0009765625 771.103515625 l 2
 50.0009765625 803.931640625 76.61328125 830.555664062 109.452148438 830.555664062 c 0
 142.291015625 830.555664062 168.903320312 803.931640625 168.903320312 771.103515625 c 2
 168.903320312 133.348632812 l 2
 168.903320312 100.520507812 142.291015625 73.896484375 109.452148438 73.896484375 c 0
EndSplineSet
Validated: 1
EndChar

StartChar: quotedbl
Encoding: 34 34 5
Width: 466
Flags: W
LayerCount: 2
Fore
SplineSet
172.330078125 822.944335938 m 0
 205.168945312 822.944335938 231.782226562 796.318359375 231.782226562 763.490234375 c 0
 231.782226562 673.8046875 178.048828125 603.5546875 109.452148438 603.5546875 c 0
 76.61328125 603.5546875 50.0009765625 630.178710938 50.0009765625 663.006835938 c 0
 50.0009765625 693.403320312 72.80859375 718.459960938 102.231445312 722.02734375 c 1
 106.2421875 727.46484375 112.87890625 741.80859375 112.87890625 763.4921875 c 0
 112.87890625 796.3203125 139.491210938 822.944335938 172.330078125 822.944335938 c 0
356.090820312 822.942382812 m 0
 388.9296875 822.942382812 415.54296875 796.31640625 415.54296875 763.48828125 c 0
 415.54296875 673.802734375 361.809570312 603.552734375 293.212890625 603.552734375 c 0
 260.374023438 603.552734375 233.76171875 630.176757812 233.76171875 663.004882812 c 0
 233.76171875 693.401367188 256.569335938 718.458007812 285.9921875 722.025390625 c 1
 290.002929688 727.462890625 296.639648438 741.806640625 296.639648438 763.490234375 c 0
 296.639648438 796.318359375 323.251953125 822.942382812 356.090820312 822.942382812 c 0
EndSplineSet
Validated: 1
EndChar

StartChar: percent
Encoding: 37 37 6
Width: 597
Flags: W
LayerCount: 2
Fore
SplineSet
505.626953125 877.877929688 m 0
 539.103515625 866.127929688 548.66015625 818.631835938 527.473632812 775.610351562 c 2
 171.271484375 51.9638671875 l 2
 169.077148438 47.5 166.590820312 43.3388671875 163.953125 39.361328125 c 0
 157.391601562 24.314453125 144.77734375 12.564453125 129.201171875 7.0732421875 c 0
 111.419921875 -2.1474609375 92.3193359375 -3.15234375 76.89453125 6.900390625 c 0
 67.65234375 12.91015625 61.318359375 22.4228515625 57.7294921875 33.859375 c 0
 52.84375 42.49609375 50.01171875 52.451171875 50.01171875 63.087890625 c 0
 50.01171875 76.9130859375 54.767578125 89.603515625 62.6796875 99.69921875 c 0
 63.8466796875 102.595703125 65.08984375 105.470703125 66.484375 108.313476562 c 2
 418.9140625 824.28515625 l 2
 438.111328125 863.28515625 475.944335938 888.297851562 505.626953125 877.877929688 c 0
109.463867188 587.342773438 m 0
 76.6298828125 587.342773438 50.0126953125 613.959960938 50.0126953125 646.793945312 c 0
 50.0126953125 679.627929688 76.6298828125 706.245117188 109.463867188 706.245117188 c 0
 142.297851562 706.245117188 168.915039062 679.627929688 168.915039062 646.793945312 c 0
 168.915039062 613.959960938 142.297851562 587.342773438 109.463867188 587.342773438 c 0
487.79296875 209.013671875 m 0
 454.958984375 209.013671875 428.341796875 235.630859375 428.341796875 268.46484375 c 0
 428.341796875 301.298828125 454.958984375 327.916015625 487.79296875 327.916015625 c 0
 520.626953125 327.916015625 547.244140625 301.298828125 547.244140625 268.46484375 c 0
 547.244140625 235.630859375 520.626953125 209.013671875 487.79296875 209.013671875 c 0
EndSplineSet
Validated: 33
EndChar

StartChar: ampersand
Encoding: 38 38 7
Width: 837
Flags: W
LayerCount: 2
Fore
SplineSet
776.720703125 52.6123046875 m 2
 794.826171875 25.2216796875 787.28125 -11.66015625 759.879882812 -29.765625 c 0
 749.805664062 -36.423828125 738.423828125 -39.623046875 727.170898438 -39.623046875 c 0
 707.875976562 -39.623046875 688.948242188 -30.240234375 677.51171875 -12.923828125 c 2
 497.502929688 259.559570312 l 1
 355.327148438 7.1064453125 l 2
 339.90234375 -20.306640625 305.766601562 -30.986328125 277.45703125 -17.1396484375 c 0
 195.002929688 23.08203125 130.30859375 88.1220703125 90.3681640625 170.911132812 c 0
 45.71484375 263.4609375 37.8134765625 368.474609375 68.1337890625 466.602539062 c 0
 101.264648438 573.864257812 178.23828125 663.35546875 279.317382812 712.116210938 c 0
 306.114257812 725.043945312 338.358398438 716.180664062 354.755859375 691.340820312 c 2
 489.418945312 487.5078125 l 1
 632.081054688 740.826171875 l 2
 648.1875 769.438476562 684.442382812 779.555664062 713.0546875 763.44921875 c 0
 741.666992188 747.342773438 751.794921875 711.087890625 735.677734375 682.475585938 c 2
 563.083984375 376.0078125 l 1
 776.720703125 52.6123046875 l 2
281.876953125 119.00390625 m 1
 423.84765625 371.067382812 l 1
 286.698242188 578.651367188 l 1
 236.899414062 542.634765625 200.352539062 491.776367188 181.73828125 431.524414062 c 0
 160.314453125 362.193359375 165.903320312 287.987304688 197.456054688 222.580078125 c 0
 217.442382812 181.1796875 246.15234375 146.059570312 281.876953125 119.00390625 c 1
EndSplineSet
Validated: 33
EndChar

StartChar: quotesingle
Encoding: 39 39 8
Width: 282
Flags: W
LayerCount: 2
Fore
SplineSet
172.330078125 822.944335938 m 0
 205.168945312 822.944335938 231.782226562 796.318359375 231.782226562 763.490234375 c 0
 231.782226562 673.8046875 178.048828125 603.5546875 109.452148438 603.5546875 c 0
 76.61328125 603.5546875 50.0009765625 630.178710938 50.0009765625 663.006835938 c 0
 50.0009765625 693.403320312 72.80859375 718.459960938 102.231445312 722.02734375 c 1
 106.2421875 727.46484375 112.87890625 741.80859375 112.87890625 763.4921875 c 0
 112.87890625 796.3203125 139.491210938 822.944335938 172.330078125 822.944335938 c 0
EndSplineSet
Validated: 1
EndChar

StartChar: parenleft
Encoding: 40 40 9
Width: 282
Flags: W
LayerCount: 2
Fore
SplineSet
179.55078125 -77.8671875 m 1
 208.984375 -81.4345703125 231.78125 -106.487304688 231.78125 -136.883789062 c 0
 231.78125 -169.711914062 205.168945312 -196.3359375 172.330078125 -196.3359375 c 0
 103.733398438 -196.3359375 50 -126.0859375 50 -36.400390625 c 2
 50 692.239257812 l 2
 50 781.924804688 103.733398438 852.174804688 172.330078125 852.174804688 c 0
 205.168945312 852.174804688 231.78125 825.55078125 231.78125 792.72265625 c 0
 231.78125 762.326171875 208.973632812 737.26953125 179.55078125 733.702148438 c 1
 175.540039062 728.264648438 168.903320312 713.920898438 168.903320312 692.237304688 c 2
 168.903320312 -36.40234375 l 2
 168.903320312 -58.0859375 175.540039062 -72.4296875 179.55078125 -77.8671875 c 1
EndSplineSet
Validated: 1
EndChar

StartChar: parenright
Encoding: 41 41 10
Width: 282
Flags: W
LayerCount: 2
Fore
SplineSet
109.452148438 852.172851562 m 0
 178.048828125 852.172851562 231.782226562 781.918945312 231.782226562 692.233398438 c 2
 231.782226562 -36.40625 l 2
 231.782226562 -126.091796875 178.048828125 -196.341796875 109.452148438 -196.341796875 c 0
 76.61328125 -196.341796875 50.0009765625 -169.717773438 50.0009765625 -136.889648438 c 0
 50.0009765625 -106.493164062 72.80859375 -81.4365234375 102.231445312 -77.869140625 c 1
 106.2421875 -72.431640625 112.87890625 -58.087890625 112.87890625 -36.404296875 c 2
 112.87890625 692.235351562 l 2
 112.87890625 713.918945312 106.2421875 728.262695312 102.231445312 733.700195312 c 1
 72.7978515625 737.267578125 50.0009765625 762.32421875 50.0009765625 792.720703125 c 0
 50.0009765625 825.548828125 76.61328125 852.172851562 109.452148438 852.172851562 c 0
EndSplineSet
Validated: 1
EndChar

StartChar: plus
Encoding: 43 43 11
Width: 500
Flags: W
LayerCount: 2
Fore
SplineSet
414.247070312 248.360351562 m 2
 432.13671875 248.360351562 448.25390625 235.291992188 449.83203125 217.456054688 c 0
 451.572265625 197.33984375 435.768554688 180.477539062 416.01953125 180.477539062 c 2
 290.08984375 180.477539062 l 1
 290.08984375 50.126953125 l 2
 290.08984375 32.2265625 277.021484375 16.109375 259.185546875 14.5634765625 c 0
 239.069335938 12.8232421875 222.20703125 28.626953125 222.20703125 48.3759765625 c 2
 222.20703125 180.466796875 l 1
 83.9443359375 180.466796875 l 2
 64.1953125 180.466796875 48.380859375 197.329101562 50.1318359375 217.4453125 c 0
 51.677734375 235.28125 67.794921875 248.349609375 85.6953125 248.349609375 c 2
 222.196289062 248.349609375 l 1
 222.196289062 380.440429688 l 2
 222.196289062 400.189453125 239.05859375 416.00390625 259.174804688 414.252929688 c 0
 277.010742188 412.70703125 290.079101562 396.58984375 290.079101562 378.689453125 c 2
 290.079101562 248.360351562 l 1
 414.247070312 248.360351562 l 2
EndSplineSet
Validated: 33
EndChar

StartChar: comma
Encoding: 44 44 12
Width: 282
Flags: W
LayerCount: 2
Fore
SplineSet
172.330078125 23.048828125 m 0
 205.168945312 23.048828125 231.782226562 -3.5771484375 231.782226562 -36.4052734375 c 0
 231.782226562 -126.090820312 178.048828125 -196.340820312 109.452148438 -196.340820312 c 0
 76.61328125 -196.340820312 50.0009765625 -169.716796875 50.0009765625 -136.888671875 c 0
 50.0009765625 -106.4921875 72.80859375 -81.435546875 102.231445312 -77.8681640625 c 1
 106.2421875 -72.4306640625 112.87890625 -58.0869140625 112.87890625 -36.4033203125 c 0
 112.87890625 -3.5751953125 139.491210938 23.048828125 172.330078125 23.048828125 c 0
EndSplineSet
Validated: 1
EndChar

StartChar: hyphen
Encoding: 45 45 13
Width: 500
Flags: W
LayerCount: 2
Fore
SplineSet
414.2578125 248.360351562 m 2
 432.147460938 248.360351562 448.264648438 235.291992188 449.83203125 217.456054688 c 0
 451.572265625 197.33984375 435.768554688 180.477539062 416.01953125 180.477539062 c 2
 83.955078125 180.477539062 l 2
 64.2060546875 180.477539062 48.3916015625 197.33984375 50.142578125 217.456054688 c 0
 51.6884765625 235.291992188 67.8056640625 248.360351562 85.7060546875 248.360351562 c 2
 414.2578125 248.360351562 l 2
EndSplineSet
Validated: 33
EndChar

StartChar: period
Encoding: 46 46 14
Width: 219
Flags: W
LayerCount: 2
Fore
SplineSet
109.452148438 57.6826171875 m 0
 76.6181640625 57.6826171875 50.0009765625 84.2998046875 50.0009765625 117.133789062 c 0
 50.0009765625 149.967773438 76.6181640625 176.584960938 109.452148438 176.584960938 c 0
 142.286132812 176.584960938 168.903320312 149.967773438 168.903320312 117.133789062 c 0
 168.903320312 84.2998046875 142.286132812 57.6826171875 109.452148438 57.6826171875 c 0
EndSplineSet
Validated: 1
EndChar

StartChar: slash
Encoding: 47 47 15
Width: 585
Flags: W
LayerCount: 2
Fore
SplineSet
501.412109375 877.877929688 m 0
 534.888671875 866.127929688 544.4453125 818.6328125 523.258789062 775.611328125 c 2
 167.056640625 51.96484375 l 2
 145.880859375 8.943359375 102.416015625 -12.4697265625 72.6796875 6.900390625 c 0
 46.326171875 24.076171875 43.072265625 69.3134765625 62.26953125 108.313476562 c 2
 414.69921875 824.28515625 l 2
 433.896484375 863.28515625 471.729492188 888.297851562 501.412109375 877.877929688 c 0
EndSplineSet
Validated: 33
EndChar

StartChar: zero
Encoding: 48 48 16
Width: 675
Flags: W
LayerCount: 2
Fore
SplineSet
447.634765625 697.405273438 m 2
 545.762695312 697.405273438 625.30859375 617.859375 625.30859375 519.7421875 c 2
 625.30859375 174.490234375 l 2
 625.30859375 76.3623046875 545.762695312 -3.18359375 447.634765625 -3.18359375 c 2
 227.673828125 -3.18359375 l 2
 129.545898438 -3.18359375 50 76.3623046875 50 174.490234375 c 2
 50 519.720703125 l 2
 50 617.859375 129.545898438 697.405273438 227.673828125 697.405273438 c 2
 447.634765625 697.405273438 l 2
506.405273438 174.478515625 m 2
 506.392578125 519.720703125 l 2
 506.392578125 552.041015625 479.942382812 578.491210938 447.622070312 578.491210938 c 2
 227.672851562 578.491210938 l 2
 195.211914062 578.491210938 168.901367188 552.180664062 168.901367188 519.719726562 c 2
 168.901367188 174.478515625 l 2
 168.901367188 142.017578125 195.211914062 115.70703125 227.672851562 115.70703125 c 2
 447.633789062 115.70703125 l 2
 480.094726562 115.70703125 506.405273438 142.017578125 506.405273438 174.478515625 c 2
EndSplineSet
Validated: 1
EndChar

StartChar: one
Encoding: 49 49 17
Width: 219
Flags: W
LayerCount: 2
Fore
SplineSet
104.133789062 692.692382812 m 0
 139.361328125 695.762695312 168.903320312 668.068359375 168.903320312 633.478515625 c 2
 168.903320312 51.7919921875 l 2
 168.903320312 17.2021484375 139.361328125 -10.4912109375 104.133789062 -7.4326171875 c 0
 72.89453125 -4.7197265625 50 23.5146484375 50 54.873046875 c 2
 50 630.397460938 l 2
 50 661.745117188 72.89453125 689.979492188 104.133789062 692.692382812 c 0
EndSplineSet
Validated: 33
EndChar

StartChar: two
Encoding: 50 50 18
Width: 674
Flags: W
LayerCount: 2
Fore
SplineSet
172.95703125 350.293945312 m 2
 170.73046875 350.293945312 168.920898438 348.5 168.888671875 346.2734375 c 2
 168.888671875 124.215820312 l 2
 168.888671875 122 170.682617188 120.194335938 172.909179688 120.194335938 c 2
 522.485351562 120.194335938 l 2
 553.833007812 120.194335938 582.067382812 97.310546875 584.791015625 66.08203125 c 0
 587.872070312 30.84375 560.178710938 1.291015625 525.578125 1.291015625 c 2
 172.921875 1.291015625 l 2
 105.0390625 1.291015625 49.998046875 56.3212890625 49.998046875 124.21484375 c 2
 49.998046875 346.272460938 l 2
 49.998046875 414.166015625 105.0390625 469.20703125 172.932617188 469.20703125 c 2
 499.1171875 469.20703125 l 2
 501.290039062 469.20703125 503.106445312 470.979492188 503.149414062 473.15234375 c 2
 505.192382812 579.484375 l 2
 505.203125 579.884765625 505.213867188 580.922851562 504.208984375 581.950195312 c 0
 503.204101562 582.977539062 502.155273438 582.977539062 501.766601562 582.977539062 c 2
 202.033203125 582.977539062 l 2
 170.685546875 582.977539062 142.451171875 605.872070312 139.73828125 637.111328125 c 0
 136.6796875 672.338867188 164.373046875 701.880859375 198.962890625 701.880859375 c 2
 498.220703125 701.880859375 l 2
 528.314453125 701.880859375 558.116210938 692.357421875 580.978515625 672.791992188 c 0
 609.385742188 648.481445312 624.7890625 613.98828125 624.086914062 577.193359375 c 2
 622.043945312 470.872070312 l 2
 620.768554688 404.556640625 565.45703125 350.293945312 499.130859375 350.293945312 c 2
 172.95703125 350.293945312 l 2
EndSplineSet
Validated: 33
EndChar

StartChar: three
Encoding: 51 51 19
Width: 657
Flags: W
LayerCount: 2
Fore
SplineSet
484.491210938 469.197265625 m 2
 552.384765625 469.197265625 607.424804688 414.165039062 607.4140625 346.271484375 c 2
 607.4140625 124.224609375 l 2
 607.4140625 56.341796875 552.383789062 1.30078125 484.490234375 1.30078125 c 2
 112.5390625 1.30078125 l 2
 81.19140625 1.30078125 52.95703125 24.1845703125 50.2333984375 55.4130859375 c 0
 47.15234375 90.6513671875 74.845703125 120.204101562 109.446289062 120.204101562 c 2
 405.245117188 120.204101562 l 2
 451.228515625 120.204101562 488.499023438 157.474609375 488.499023438 203.458007812 c 2
 488.499023438 277.578125 l 2
 488.499023438 317.74609375 455.930664062 350.314453125 415.762695312 350.314453125 c 0
 358.807617188 350.314453125 306.609375 387.228515625 292.470703125 442.41015625 c 0
 279.110351562 494.543945312 300.599609375 548.158203125 346.625976562 576.651367188 c 0
 348.323242188 577.689453125 348.8203125 578.002929688 348.118164062 580.489257812 c 0
 347.404296875 582.975585938 346.755859375 582.975585938 344.821289062 582.975585938 c 2
 202.018554688 582.975585938 l 2
 170.670898438 582.975585938 142.436523438 605.870117188 139.723632812 637.109375 c 0
 136.665039062 672.336914062 164.358398438 701.87890625 198.948242188 701.87890625 c 2
 340.076171875 701.87890625 l 2
 397.041992188 701.87890625 449.240234375 664.954101562 463.37890625 609.772460938 c 0
 476.739257812 557.627929688 455.260742188 504.024414062 409.223632812 475.53125 c 0
 407.581054688 474.515625 407.018554688 474.169921875 407.732421875 471.68359375 c 0
 408.446289062 469.197265625 409.041015625 469.197265625 411.030273438 469.197265625 c 2
 484.491210938 469.197265625 l 2
EndSplineSet
Validated: 33
EndChar

StartChar: four
Encoding: 52 52 20
Width: 520
Flags: W
LayerCount: 2
Fore
SplineSet
455.71875 603.50390625 m 2
 169.948242188 273.516601562 l 2
 169.180664062 272.619140625 168.510742188 271.862304688 169.4296875 269.8515625 c 0
 170.337890625 267.8515625 171.365234375 267.8515625 172.543945312 267.8515625 c 2
 329.399414062 267.8515625 l 2
 397.29296875 267.8515625 452.333984375 212.810546875 452.333984375 144.916992188 c 2
 452.333984375 60.744140625 l 2
 452.333984375 26.154296875 422.791992188 -1.5390625 387.564453125 1.51953125 c 0
 356.325195312 4.232421875 333.430664062 32.466796875 333.430664062 63.8251953125 c 2
 333.430664062 144.916992188 l 2
 333.430664062 147.1328125 331.63671875 148.9375 329.41015625 148.9375 c 2
 176.337890625 148.9375 l 2
 132.16015625 148.9375 89.6142578125 170.653320312 67.3251953125 208.799804688 c 0
 40.0419921875 255.485351562 45.5009765625 311.423828125 80.0693359375 351.342773438 c 2
 363.81640625 679.0078125 l 2
 384.333007812 702.712890625 420.123046875 709.068359375 445.514648438 690.681640625 c 0
 474.159179688 669.938476562 478.364257812 629.663085938 455.71875 603.50390625 c 2
EndSplineSet
Validated: 33
EndChar

StartChar: five
Encoding: 53 53 21
Width: 675
Flags: W
LayerCount: 2
Fore
SplineSet
172.946289062 578.501953125 m 2
 170.719726562 578.501953125 168.916015625 576.698242188 168.9375 574.471679688 c 2
 168.9375 456.681640625 l 2
 168.9375 456.28125 168.9375 455.221679688 169.975585938 454.216796875 c 0
 171.013671875 453.22265625 172.051757812 453.22265625 172.473632812 453.254882812 c 2
 481.374023438 462.712890625 l 2
 519.260742188 463.8046875 554.7265625 448.000976562 579.491210938 418.329101562 c 0
 598.407226562 395.672851562 607.444335938 366.3359375 607.444335938 336.815429688 c 2
 607.444335938 119.73046875 l 2
 607.444335938 51.8369140625 552.403320312 -3.2041015625 484.509765625 -3.2041015625 c 2
 112.569335938 -3.2041015625 l 2
 81.2216796875 -3.2041015625 52.9873046875 19.6796875 50.263671875 50.908203125 c 0
 47.1826171875 86.146484375 74.8759765625 115.69921875 109.4765625 115.69921875 c 2
 484.498046875 115.69921875 l 2
 486.724609375 115.69921875 488.529296875 117.50390625 488.529296875 119.73046875 c 2
 488.529296875 340.436523438 l 2
 488.529296875 340.836914062 488.529296875 341.896484375 487.491210938 342.901367188 c 0
 486.442382812 343.916992188 485.415039062 343.895507812 485.00390625 343.86328125 c 2
 176.092773438 334.405273438 l 2
 136.270507812 333.32421875 98.923828125 350.834960938 74.1162109375 383.673828125 c 0
 57.740234375 405.357421875 50.0224609375 432.359375 50.0224609375 459.5234375 c 2
 50.0224609375 574.470703125 l 2
 50.0224609375 642.364257812 105.063476562 697.405273438 172.95703125 697.405273438 c 2
 562.797851562 697.405273438 l 2
 594.145507812 697.405273438 622.379882812 674.510742188 625.092773438 643.271484375 c 0
 628.151367188 608.043945312 600.458007812 578.501953125 565.868164062 578.501953125 c 2
 172.946289062 578.501953125 l 2
EndSplineSet
Validated: 33
EndChar

StartChar: six
Encoding: 54 54 22
Width: 675
Flags: W
LayerCount: 2
Fore
SplineSet
172.935546875 582.977539062 m 2
 170.708984375 582.977539062 168.905273438 581.171875 168.905273438 578.9453125 c 2
 168.905273438 124.215820312 l 2
 168.905273438 122 170.69921875 120.1953125 172.92578125 120.1953125 c 2
 484.485351562 120.1953125 l 2
 486.701171875 120.1953125 488.505859375 121.989257812 488.505859375 124.215820312 c 2
 488.505859375 346.2734375 l 2
 488.505859375 348.5 486.700195312 350.305664062 484.473632812 350.305664062 c 2
 287.029296875 350.305664062 l 2
 255.681640625 350.305664062 227.447265625 373.200195312 224.734375 404.439453125 c 0
 221.67578125 439.666992188 249.369140625 469.208984375 283.958984375 469.208984375 c 2
 484.473632812 469.208984375 l 2
 552.3671875 469.208984375 607.408203125 414.16796875 607.408203125 346.274414062 c 2
 607.408203125 124.206054688 l 2
 607.408203125 56.3232421875 552.377929688 1.2822265625 484.484375 1.2822265625 c 2
 172.935546875 1.2822265625 l 2
 105.041992188 1.2822265625 50.0009765625 56.3232421875 50.0009765625 124.216796875 c 2
 50.0009765625 578.946289062 l 2
 50.0009765625 646.83984375 105.041992188 701.880859375 172.935546875 701.880859375 c 2
 562.776367188 701.880859375 l 2
 594.134765625 701.880859375 622.358398438 678.986328125 625.08203125 647.747070312 c 0
 628.140625 612.51953125 600.447265625 582.977539062 565.857421875 582.977539062 c 2
 172.935546875 582.977539062 l 2
EndSplineSet
Validated: 33
EndChar

StartChar: seven
Encoding: 55 55 23
Width: 538
Flags: W
LayerCount: 2
Fore
SplineSet
449.225585938 664.274414062 m 0
 493.251953125 622.107421875 499.220703125 557.434570312 468.45703125 509.235351562 c 2
 158.810546875 24.2607421875 l 2
 147.471679688 6.5009765625 128.263671875 -3.2060546875 108.64453125 -3.2060546875 c 0
 96.2568359375 -3.2060546875 83.7177734375 0.6640625 72.865234375 8.814453125 c 0
 47.6572265625 27.763671875 43.1279296875 64.029296875 60.0986328125 90.609375 c 2
 368.220703125 573.227539062 l 2
 368.739257812 574.02734375 369.3125 574.935546875 368.33984375 576.71875 c 0
 367.3671875 578.501953125 366.286132812 578.501953125 365.334960938 578.501953125 c 2
 116.243164062 578.501953125 l 2
 84.8955078125 578.501953125 56.6611328125 601.396484375 53.9482421875 632.635742188 c 0
 50.8896484375 667.86328125 78.5830078125 697.405273438 113.172851562 697.405273438 c 2
 362.783203125 697.405273438 l 2
 394.703125 697.405273438 426.1796875 686.34765625 449.225585938 664.274414062 c 0
EndSplineSet
Validated: 33
EndChar

StartChar: eight
Encoding: 56 56 24
Width: 675
Flags: W
LayerCount: 2
Fore
SplineSet
502.373046875 701.880859375 m 2
 570.266601562 701.880859375 625.307617188 646.83984375 625.296875 578.946289062 c 2
 625.296875 124.206054688 l 2
 625.296875 56.3232421875 570.266601562 1.2822265625 502.373046875 1.2822265625 c 2
 172.934570312 1.2822265625 l 2
 105.041015625 1.2822265625 50 56.3232421875 50 124.216796875 c 2
 50 578.946289062 l 2
 50 646.83984375 105.041015625 701.880859375 172.934570312 701.880859375 c 2
 502.373046875 701.880859375 l 2
506.405273438 124.215820312 m 2
 506.416015625 345.819335938 l 1
 168.9140625 345.819335938 l 1
 168.9140625 124.2265625 l 2
 168.9140625 122 170.71875 120.1953125 172.9453125 120.1953125 c 2
 502.383789062 120.1953125 l 2
 504.599609375 120.1953125 506.405273438 121.989257812 506.405273438 124.215820312 c 2
506.405273438 464.72265625 m 1
 506.40625 578.9453125 l 2
 506.40625 581.171875 504.600585938 582.9765625 502.374023438 582.9765625 c 2
 172.935546875 582.9765625 l 2
 170.708984375 582.9765625 168.903320312 581.171875 168.903320312 578.9453125 c 2
 168.903320312 464.72265625 l 1
 506.405273438 464.72265625 l 1
EndSplineSet
Validated: 33
EndChar

StartChar: nine
Encoding: 57 57 25
Width: 675
Flags: W
LayerCount: 2
Fore
SplineSet
502.368164062 701.880859375 m 2
 570.26171875 701.880859375 625.305664062 646.840820312 625.327148438 578.947265625 c 2
 625.327148438 124.217773438 l 2
 625.327148438 56.3349609375 570.296875 1.2939453125 502.403320312 1.2939453125 c 2
 112.5625 1.2939453125 l 2
 81.21484375 1.2939453125 52.98046875 24.177734375 50.2568359375 55.40625 c 0
 47.17578125 90.64453125 74.869140625 120.197265625 109.469726562 120.197265625 c 2
 502.391601562 120.197265625 l 2
 504.607421875 120.197265625 506.412109375 121.991210938 506.412109375 124.217773438 c 2
 506.412109375 578.947265625 l 2
 506.412109375 581.173828125 504.606445312 582.978515625 502.379882812 582.978515625 c 2
 190.841796875 582.978515625 l 2
 188.615234375 582.978515625 186.809570312 581.173828125 186.809570312 578.947265625 c 2
 186.809570312 356.889648438 l 2
 186.809570312 354.673828125 188.603515625 352.868164062 190.830078125 352.868164062 c 2
 397.224609375 352.868164062 l 2
 428.572265625 352.868164062 456.806640625 329.973632812 459.51953125 298.734375 c 0
 462.578125 263.506835938 434.884765625 233.96484375 400.294921875 233.96484375 c 2
 190.830078125 233.96484375 l 2
 122.936523438 233.96484375 67.8955078125 289.005859375 67.8955078125 356.899414062 c 2
 67.8955078125 578.946289062 l 2
 67.8955078125 646.83984375 122.936523438 701.880859375 190.830078125 701.880859375 c 2
 502.368164062 701.880859375 l 2
EndSplineSet
Validated: 33
EndChar

StartChar: colon
Encoding: 58 58 26
Width: 219
Flags: W
LayerCount: 2
Fore
SplineSet
109.452148438 14.4443359375 m 0
 76.6181640625 14.4443359375 50.0009765625 41.0615234375 50.0009765625 73.8955078125 c 0
 50.0009765625 106.729492188 76.6181640625 133.346679688 109.452148438 133.346679688 c 0
 142.286132812 133.346679688 168.903320312 106.729492188 168.903320312 73.8955078125 c 0
 168.903320312 41.0615234375 142.286132812 14.4443359375 109.452148438 14.4443359375 c 0
109.452148438 306.297851562 m 0
 76.6181640625 306.297851562 50.0009765625 332.915039062 50.0009765625 365.749023438 c 0
 50.0009765625 398.583007812 76.6181640625 425.200195312 109.452148438 425.200195312 c 0
 142.286132812 425.200195312 168.903320312 398.583007812 168.903320312 365.749023438 c 0
 168.903320312 332.915039062 142.286132812 306.297851562 109.452148438 306.297851562 c 0
EndSplineSet
Validated: 1
EndChar

StartChar: semicolon
Encoding: 59 59 27
Width: 282
Flags: W
LayerCount: 2
Fore
SplineSet
172.330078125 23.048828125 m 0
 205.168945312 23.048828125 231.782226562 -3.5771484375 231.782226562 -36.4052734375 c 0
 231.782226562 -126.090820312 178.048828125 -196.340820312 109.452148438 -196.340820312 c 0
 76.61328125 -196.340820312 50.0009765625 -169.716796875 50.0009765625 -136.888671875 c 0
 50.0009765625 -106.4921875 72.80859375 -81.435546875 102.231445312 -77.8681640625 c 1
 106.2421875 -72.4306640625 112.87890625 -58.0869140625 112.87890625 -36.4033203125 c 0
 112.87890625 -3.5751953125 139.491210938 23.048828125 172.330078125 23.048828125 c 0
172.331054688 57.6806640625 m 0
 139.497070312 57.6806640625 112.879882812 84.2978515625 112.879882812 117.131835938 c 0
 112.879882812 149.965820312 139.497070312 176.583007812 172.331054688 176.583007812 c 0
 205.165039062 176.583007812 231.782226562 149.965820312 231.782226562 117.131835938 c 0
 231.782226562 84.2978515625 205.165039062 57.6806640625 172.331054688 57.6806640625 c 0
EndSplineSet
Validated: 1
EndChar

StartChar: equal
Encoding: 61 61 28
Width: 500
Flags: W
LayerCount: 2
Fore
SplineSet
83.9443359375 180.4765625 m 2
 64.1953125 180.4765625 48.380859375 197.338867188 50.142578125 217.455078125 c 0
 51.6884765625 235.291015625 67.8056640625 248.359375 85.7060546875 248.359375 c 2
 414.2578125 248.359375 l 2
 432.158203125 248.359375 448.275390625 235.291015625 449.821289062 217.455078125 c 0
 451.561523438 197.338867188 435.7578125 180.4765625 416.008789062 180.4765625 c 2
 83.9443359375 180.4765625 l 2
414.2578125 86.21875 m 2
 432.147460938 86.21875 448.264648438 73.150390625 449.83203125 55.314453125 c 0
 451.572265625 35.1982421875 435.768554688 18.3359375 416.01953125 18.3359375 c 2
 83.955078125 18.3359375 l 2
 64.2060546875 18.3359375 48.3916015625 35.1982421875 50.142578125 55.314453125 c 0
 51.6884765625 73.150390625 67.8056640625 86.21875 85.7060546875 86.21875 c 2
 414.2578125 86.21875 l 2
EndSplineSet
Validated: 33
EndChar

StartChar: question
Encoding: 63 63 29
Width: 770
Flags: W
LayerCount: 2
Fore
SplineSet
385.091796875 954.862304688 m 0
 569.856445312 954.862304688 720.182617188 804.543945312 720.182617188 619.768554688 c 0
 720.182617188 455.282226562 601.051757812 318.100585938 444.541992188 289.953125 c 1
 444.541992188 149.560546875 l 2
 444.541992188 116.732421875 417.9296875 90.1083984375 385.090820312 90.1083984375 c 0
 352.251953125 90.1083984375 325.639648438 116.732421875 325.639648438 149.560546875 c 2
 325.639648438 344.129882812 l 2
 325.639648438 376.958007812 352.251953125 403.58203125 385.090820312 403.58203125 c 0
 504.296875 403.58203125 601.279296875 500.564453125 601.279296875 619.770507812 c 0
 601.279296875 738.9765625 504.296875 835.958984375 385.090820312 835.958984375 c 0
 265.884765625 835.958984375 168.903320312 738.977539062 168.903320312 619.771484375 c 0
 168.903320312 586.943359375 142.291015625 560.319335938 109.452148438 560.319335938 c 0
 76.61328125 560.319335938 50.0009765625 586.943359375 50.0009765625 619.771484375 c 0
 50.0009765625 804.546875 200.327148438 954.862304688 385.091796875 954.862304688 c 0
379.6875 -104.461914062 m 0
 346.853515625 -104.461914062 320.236328125 -77.8447265625 320.236328125 -45.0107421875 c 0
 320.236328125 -12.1767578125 346.853515625 14.4404296875 379.6875 14.4404296875 c 0
 412.521484375 14.4404296875 439.138671875 -12.1767578125 439.138671875 -45.0107421875 c 0
 439.138671875 -77.8447265625 412.521484375 -104.461914062 379.6875 -104.461914062 c 0
EndSplineSet
Validated: 1
EndChar

StartChar: at
Encoding: 64 64 30
Width: 911
Flags: W
LayerCount: 2
Fore
SplineSet
455.352539062 776.506835938 m 0
 678.869140625 776.506835938 860.704101562 594.670898438 860.682617188 371.165039062 c 0
 860.682617188 338.336914062 834.05859375 311.712890625 801.23046875 311.712890625 c 0
 768.40234375 311.712890625 741.778320312 338.336914062 741.778320312 371.165039062 c 0
 741.778320312 529.112304688 613.276367188 657.614257812 455.329101562 657.614257812 c 0
 297.381835938 657.614257812 168.879882812 529.112304688 168.879882812 371.165039062 c 0
 168.879882812 315.431640625 184.456054688 262.551757812 213.630859375 217.087890625 c 1
 396.072265625 607.133789062 l 2
 405.854492188 628.049804688 426.857421875 641.399414062 449.924804688 641.399414062 c 0
 450.022460938 641.399414062 450.141601562 641.399414062 450.25 641.399414062 c 0
 473.458007812 641.26953125 494.4609375 627.649414062 504.059570312 606.5390625 c 2
 610.489257812 372.266601562 l 1
 619.4609375 376.439453125 l 2
 649.2734375 390.275390625 684.609375 377.314453125 698.423828125 347.556640625 c 0
 712.249023438 317.765625 699.321289062 282.418945312 669.541015625 268.59375 c 2
 659.671875 264.010742188 l 1
 723.349609375 123.877929688 l 2
 734.666992188 98.951171875 727.510742188 69.5068359375 706.010742188 52.5791015625 c 0
 633.93359375 -4.19140625 547.263671875 -34.1982421875 455.3515625 -34.1982421875 c 0
 352.576171875 -34.1982421875 254.567382812 4.3154296875 179.35546875 74.2734375 c 0
 97.150390625 150.717773438 50 258.930664062 50 371.154296875 c 0
 50 594.670898438 231.8359375 776.506835938 455.352539062 776.506835938 c 0
439.234375 418.694335938 m 1
 383.544921875 299.662109375 l 1
 384.885742188 289.306640625 390.138671875 280.107421875 397.7265625 273.481445312 c 1
 502.653320312 322.19921875 l 1
 457.848632812 420.82421875 l 1
 451.58984375 421.483398438 445.22265625 420.758789062 439.234375 418.694335938 c 1
525.580078125 201.740234375 m 1
 332.717773438 112.20703125 l 1
 370.659179688 94.2197265625 412.416015625 84.70703125 455.350585938 84.70703125 c 0
 504.79296875 84.70703125 552.073242188 96.9755859375 594.284179688 120.518554688 c 1
 566.915039062 180.759765625 l 1
 555.2734375 191.439453125 540.951171875 198.724609375 525.580078125 201.740234375 c 1
EndSplineSet
Validated: 33
EndChar

StartChar: A
Encoding: 65 65 31
AltUni2: 0000c5.ffffffff.0 0000c4.ffffffff.0 0000c3.ffffffff.0 0000c2.ffffffff.0 0000c1.ffffffff.0 0000c0.ffffffff.0
Width: 741
Flags: W
LayerCount: 2
Fore
SplineSet
170.46484375 17.3681640625 m 2
 162.790039062 14.0283203125 154.497070312 12.2978515625 146.109375 12.2978515625 c 2
 111.216796875 12.2978515625 l 2
 67.265625 12.2978515625 37.669921875 57.275390625 55.0517578125 97.6484375 c 2
 300.025390625 666.3203125 l 2
 309.689453125 688.75 331.7734375 703.27734375 356.19140625 703.27734375 c 2
 382.2421875 703.27734375 l 2
 406.584960938 703.27734375 428.603515625 688.8359375 438.321289062 666.514648438 c 2
 685.705078125 97.8427734375 l 2
 703.270507812 57.4482421875 673.674804688 12.2978515625 629.626953125 12.2978515625 c 2
 626.903320312 12.2978515625 l 2
 601.803710938 12.2978515625 579.254882812 27.63671875 570.0234375 50.9853515625 c 0
 544.232421875 116.28515625 469.463867188 147.221679688 405.072265625 119.2578125 c 2
 170.46484375 17.3681640625 l 2
427.229492188 252.407226562 m 2
 457.225585938 265.486328125 471.602539062 299.890625 459.831054688 330.4375 c 2
 430.137695312 407.487304688 l 2
 409.9453125 459.870117188 335.75 459.643554688 315.881835938 407.142578125 c 2
 275.076171875 299.340820312 l 2
 255.921875 248.720703125 307.115234375 200.002929688 356.73046875 221.643554688 c 2
 427.229492188 252.407226562 l 2
EndSplineSet
Validated: 33
EndChar

StartChar: B
Encoding: 66 66 32
Width: 610
Flags: W
LayerCount: 2
Fore
SplineSet
98.177734375 597.573242188 m 2
 71.6083984375 597.508789062 50.0166015625 619.052734375 50.0166015625 645.643554688 c 2
 50.0166015625 655.188476562 l 2
 50.0166015625 681.747070312 71.548828125 703.268554688 98.0966796875 703.268554688 c 2
 319.375976562 703.268554688 l 2
 345.39453125 703.268554688 371.099609375 700.166015625 396.469726562 693.994140625 c 0
 421.83984375 687.80078125 444.442382812 677.7265625 464.298828125 663.739257812 c 0
 484.133789062 649.741210938 500.240234375 631.689453125 512.606445312 609.573242188 c 0
 524.961914062 587.446289062 531.14453125 560.779296875 531.14453125 529.540039062 c 0
 531.14453125 490.506835938 520.076171875 458.294921875 497.959960938 432.924804688 c 0
 475.833007812 407.5546875 446.875 389.330078125 411.106445312 378.272460938 c 1
 411.106445312 376.31640625 l 1
 432.57421875 373.7109375 452.58203125 367.6796875 471.130859375 358.264648438 c 0
 489.668945312 348.828125 505.439453125 336.796875 518.46484375 322.150390625 c 0
 531.479492188 307.514648438 541.715820312 290.586914062 549.20703125 271.400390625 c 0
 556.676757812 252.203125 560.427734375 231.53515625 560.427734375 209.4296875 c 0
 560.427734375 171.694335938 552.936523438 140.29296875 537.9765625 115.248046875 c 0
 522.995117188 90.19140625 503.333007812 70.021484375 478.92578125 54.7373046875 c 0
 454.529296875 39.4423828125 426.543945312 28.5361328125 395.001953125 22.0400390625 c 0
 363.438476562 15.533203125 331.399414062 12.279296875 298.86328125 12.279296875 c 2
 98.0791015625 12.279296875 l 2
 71.5205078125 12.279296875 49.9990234375 33.8115234375 49.9990234375 60.359375 c 2
 49.9990234375 387.559570312 l 2
 49.9990234375 413.98828125 71.3369140625 435.466796875 97.765625 435.639648438 c 2
 349.94921875 437.282226562 l 2
 365.92578125 437.282226562 376.443359375 444.189453125 387.84765625 455.59375 c 0
 387.879882812 455.625976562 387.912109375 455.658203125 387.944335938 455.690429688 c 0
 401.423828125 470.1640625 408.168945312 487.956054688 408.168945312 509.06640625 c 0
 408.168945312 538.986328125 397.586914062 561.286132812 376.454101562 575.921875 c 0
 355.299804688 590.557617188 321.315429688 597.88671875 274.467773438 597.88671875 c 2
 259.345703125 597.88671875 l 1
 98.177734375 597.573242188 l 2
172.983398438 268.708984375 m 2
 172.983398438 165.78125 l 2
 172.983398438 139.22265625 194.515625 117.701171875 221.063476562 117.701171875 c 2
 286.190429688 117.701171875 l 2
 301.809570312 117.701171875 318.54296875 118.673828125 336.454101562 120.629882812 c 0
 354.34375 122.5859375 370.763671875 127.125976562 385.745117188 134.29296875 c 0
 400.705078125 141.44921875 413.071289062 151.696289062 422.83203125 165.03515625 c 0
 432.592773438 178.36328125 437.467773438 196.415039062 437.467773438 219.201171875 c 0
 437.467773438 255.62890625 425.587890625 281.009765625 401.850585938 295.321289062 c 0
 378.091796875 309.622070312 341.166992188 316.7890625 291.076171875 316.7890625 c 2
 221.063476562 316.7890625 l 2
 194.504882812 316.7890625 172.983398438 295.256835938 172.983398438 268.708984375 c 2
EndSplineSet
Validated: 33
EndChar

StartChar: C
Encoding: 67 67 33
AltUni2: 0000c7.ffffffff.0
Width: 696
Flags: W
LayerCount: 2
Fore
SplineSet
605.322265625 573.543945312 m 2
 597.626953125 567.879882812 l 2
 578.061523438 553.514648438 551.005859375 553.579101562 532.229492188 568.9609375 c 0
 517.0859375 581.359375 502.245117188 590.341796875 487.706054688 595.930664062 c 0
 463.947265625 605.032226562 440.047851562 609.59375 415.975585938 609.59375 c 0
 380.185546875 609.59375 347.811523438 603.249023438 318.875 590.55859375 c 0
 289.927734375 577.868164062 265.034179688 560.302734375 244.21484375 537.862304688 c 0
 223.374023438 515.411132812 207.279296875 489.219726562 195.897460938 459.298828125 c 0
 184.515625 429.3671875 178.830078125 397.155273438 178.830078125 362.684570312 c 0
 178.830078125 325.59765625 184.515625 291.440429688 195.897460938 260.211914062 c 0
 207.279296875 228.983398438 223.374023438 201.981445312 244.21484375 179.206054688 c 0
 265.034179688 156.419921875 289.916992188 138.530273438 318.875 125.526367188 c 0
 347.811523438 112.500976562 380.185546875 106.004882812 415.975585938 106.004882812 c 0
 443.939453125 106.004882812 471.114257812 112.673828125 497.467773438 126.012695312 c 0
 513.022460938 133.87109375 527.939453125 144.518554688 542.240234375 157.943359375 c 0
 560.842773438 175.400390625 589.325195312 177.010742188 610.111328125 162.212890625 c 2
 623.3203125 152.80859375 l 2
 651.857421875 132.498046875 653.78125 90.892578125 627.438476562 67.8037109375 c 0
 606.586914062 49.5361328125 583.595703125 34.943359375 558.463867188 24.0146484375 c 0
 513.572265625 4.4931640625 465.740234375 -5.267578125 415.000976562 -5.267578125 c 0
 361.645507812 -5.267578125 312.66796875 3.369140625 268.111328125 20.5888671875 c 0
 223.543945312 37.8193359375 185.16015625 62.2265625 152.958984375 93.7900390625 c 0
 120.7578125 125.342773438 95.5283203125 163.229492188 77.3251953125 207.483398438 c 0
 59.1005859375 251.7265625 49.9990234375 300.844726562 49.9990234375 354.848632812 c 0
 49.9990234375 410.149414062 59.1005859375 460.40234375 77.3251953125 505.639648438 c 0
 95.5283203125 550.85546875 120.7578125 589.401367188 152.958984375 621.2890625 c 0
 185.16015625 653.155273438 223.5546875 677.724609375 268.111328125 694.9765625 c 0
 312.678710938 712.20703125 361.645507812 720.833007812 415.000976562 720.833007812 c 0
 461.848632812 720.833007812 505.26953125 712.541992188 545.275390625 695.94921875 c 0
 566.61328125 687.107421875 587.151367188 674.979492188 606.911132812 659.576171875 c 0
 635.037109375 637.643554688 634.075195312 594.665039062 605.322265625 573.543945312 c 2
EndSplineSet
Validated: 33
EndChar

StartChar: D
Encoding: 68 68 34
Width: 724
Flags: W
LayerCount: 2
Fore
SplineSet
50.0107421875 657.1328125 m 2
 50.0107421875 682.62109375 70.65625 703.27734375 96.14453125 703.27734375 c 2
 322.298828125 703.27734375 l 2
 367.828125 703.27734375 411.7578125 696.272460938 454.0546875 682.295898438 c 0
 496.330078125 668.297851562 533.741210938 646.9921875 566.288085938 618.369140625 c 0
 598.813476562 589.735351562 624.842773438 553.783203125 644.364257812 510.524414062 c 0
 663.885742188 467.243164062 673.646484375 416.341796875 673.646484375 357.787109375 c 0
 673.646484375 298.573242188 662.426757812 247.336914062 639.975585938 204.078125 c 0
 617.524414062 160.796875 588.56640625 125.028320312 553.122070312 96.71875 c 0
 517.645507812 68.419921875 478.288085938 47.265625 435.029296875 33.2890625 c 0
 391.759765625 19.291015625 349.30078125 12.30859375 307.663085938 12.30859375 c 2
 197.083007812 12.30859375 l 2
 181.982421875 12.30859375 167.84375 19.69140625 159.217773438 32.0791015625 c 2
 58.2900390625 176.990234375 l 2
 52.896484375 184.729492188 50.0107421875 193.928710938 50.0107421875 203.365234375 c 2
 50.0107421875 657.1328125 l 2
264.716796875 123.55859375 m 0
 303.08984375 123.55859375 339.37890625 127.946289062 373.536132812 136.734375 c 0
 407.693359375 145.522460938 437.451171875 159.185546875 462.83203125 177.723632812 c 0
 488.202148438 196.26171875 508.209960938 220.333984375 522.845703125 249.94140625 c 0
 537.481445312 279.537109375 544.810546875 315.478515625 544.810546875 357.786132812 c 0
 544.810546875 399.413085938 538.29296875 435.213867188 525.2890625 465.134765625 c 0
 512.263671875 495.055664062 494.211914062 519.30078125 471.123046875 537.849609375 c 0
 448.0234375 556.387695312 420.697265625 570.05078125 389.14453125 578.838867188 c 0
 357.581054688 587.626953125 322.936523438 592.015625 285.201171875 592.015625 c 2
 219.112304688 592.015625 l 2
 193.624023438 592.015625 172.966796875 571.358398438 172.966796875 545.870117188 c 2
 172.966796875 237.618164062 l 2
 172.966796875 228.462890625 175.690429688 219.501953125 180.803710938 211.903320312 c 2
 226.397460938 143.98828125 l 2
 234.969726562 131.22265625 249.334960938 123.55859375 264.716796875 123.55859375 c 0
EndSplineSet
Validated: 1
EndChar

StartChar: E
Encoding: 69 69 35
AltUni2: 0000cb.ffffffff.0 0000ca.ffffffff.0 0000c9.ffffffff.0 0000c8.ffffffff.0
Width: 528
Flags: W
LayerCount: 2
Fore
SplineSet
50 339.098632812 m 2
 50 369.689453125 74.7412109375 394.515625 105.321289062 394.61328125 c 2
 421.723632812 395.737304688 l 2
 452.4765625 395.845703125 477.45703125 370.951171875 477.45703125 340.208984375 c 0
 477.45703125 309.54296875 452.595703125 284.681640625 421.9296875 284.681640625 c 2
 228.495117188 284.681640625 l 2
 197.829101562 284.681640625 172.967773438 259.8203125 172.967773438 229.154296875 c 2
 172.967773438 164.557617188 l 2
 172.967773438 133.891601562 197.829101562 109.030273438 228.495117188 109.030273438 c 2
 421.9296875 109.030273438 l 2
 452.595703125 109.030273438 477.45703125 84.1689453125 477.45703125 53.5029296875 c 2
 477.45703125 53.2978515625 l 2
 477.45703125 22.6318359375 452.595703125 -2.2294921875 421.9296875 -2.2294921875 c 2
 105.52734375 -2.2294921875 l 2
 74.861328125 -2.2294921875 50 22.6318359375 50 53.2978515625 c 2
 50 339.098632812 l 2
105.526367188 577.475585938 m 2
 74.8603515625 577.475585938 49.9990234375 602.336914062 49.9990234375 633.013671875 c 2
 49.9990234375 633.208007812 l 2
 49.9990234375 663.874023438 74.8603515625 688.735351562 105.526367188 688.735351562 c 2
 422.75 688.735351562 l 2
 453.416015625 688.735351562 478.27734375 663.874023438 478.27734375 633.208007812 c 2
 478.27734375 633.002929688 l 2
 478.27734375 602.336914062 453.416015625 577.475585938 422.75 577.475585938 c 2
 105.526367188 577.475585938 l 2
EndSplineSet
Validated: 33
EndChar

StartChar: F
Encoding: 70 70 36
Width: 528
Flags: W
LayerCount: 2
Fore
SplineSet
50 339.055664062 m 2
 50 369.678710938 74.755859375 394.54296875 105.357421875 394.68359375 c 2
 380.986328125 395.948242188 l 1
 421.82421875 395.948242188 l 2
 452.544921875 395.948242188 477.450195312 371.04296875 477.450195312 340.322265625 c 0
 477.450195312 309.6015625 452.544921875 284.696289062 421.82421875 284.696289062 c 2
 228.584960938 284.696289062 l 2
 197.864257812 284.696289062 172.958984375 259.791015625 172.958984375 229.0703125 c 2
 172.958984375 53.3955078125 l 2
 172.958984375 22.6748046875 148.053710938 -2.23046875 117.333007812 -2.23046875 c 2
 105.625976562 -2.23046875 l 2
 74.9052734375 -2.23046875 50 22.6748046875 50 53.3955078125 c 2
 50 339.055664062 l 2
105.637695312 577.481445312 m 2
 74.9169921875 577.481445312 50.0009765625 602.38671875 50.01171875 633.107421875 c 0
 50.01171875 663.828125 74.9169921875 688.733398438 105.637695312 688.733398438 c 2
 422.666992188 688.733398438 l 2
 453.387695312 688.733398438 478.29296875 663.828125 478.29296875 633.107421875 c 0
 478.29296875 602.38671875 453.387695312 577.481445312 422.666992188 577.481445312 c 2
 105.637695312 577.481445312 l 2
EndSplineSet
Validated: 33
EndChar

StartChar: G
Encoding: 71 71 37
Width: 751
Flags: W
LayerCount: 2
Fore
SplineSet
700.953125 83.1533203125 m 2
 700.953125 61.5126953125 688.5234375 41.5986328125 668.829101562 32.6484375 c 0
 591.953125 -2.3203125 507.358398438 -19.798828125 415.002929688 -19.798828125 c 0
 361.647460938 -19.798828125 312.69140625 -11.162109375 268.124023438 6.0576171875 c 0
 223.545898438 23.2880859375 185.172851562 47.6953125 152.9609375 79.2587890625 c 0
 120.759765625 110.811523438 95.5302734375 148.698242188 77.3271484375 192.952148438 c 0
 59.1025390625 237.1953125 50.0009765625 286.313476562 50.0009765625 340.317382812 c 0
 50.0009765625 395.618164062 59.1025390625 445.87109375 77.3271484375 491.108398438 c 0
 95.5302734375 536.32421875 120.759765625 574.870117188 152.9609375 606.7578125 c 0
 185.162109375 638.624023438 223.545898438 663.193359375 268.124023438 680.4453125 c 0
 312.69140625 697.67578125 361.647460938 706.301757812 415.002929688 706.301757812 c 0
 467.720703125 706.301757812 517.141601562 699.95703125 563.3515625 687.27734375 c 0
 586.2890625 680.975585938 608.026367188 672.219726562 628.564453125 661.021484375 c 0
 661.036132812 643.315429688 667.370117188 599.299804688 641.362304688 573.01171875 c 2
 631.190429688 562.732421875 l 2
 612.965820312 544.313476562 584.298828125 540.66015625 562.453125 554.59375 c 0
 548.314453125 563.608398438 532.834960938 571.240234375 516.015625 577.477539062 c 0
 484.452148438 589.184570312 451.116210938 595.04296875 415.985351562 595.04296875 c 0
 380.1953125 595.04296875 347.821289062 588.698242188 318.86328125 576.0078125 c 0
 289.916015625 563.317382812 265.021484375 545.751953125 244.213867188 523.311523438 c 0
 223.383789062 500.860351562 207.27734375 474.668945312 195.90625 444.748046875 c 0
 184.512695312 414.81640625 178.827148438 382.604492188 178.827148438 348.133789062 c 0
 178.827148438 311.046875 184.512695312 276.889648438 195.90625 245.661132812 c 0
 207.288085938 214.432617188 223.3828125 187.430664062 244.212890625 164.655273438 c 0
 265.032226562 141.869140625 289.915039062 123.979492188 318.862304688 110.975585938 c 0
 347.809570312 97.9501953125 380.194335938 91.4541015625 415.984375 91.4541015625 c 0
 447.202148438 91.4541015625 476.646484375 94.3837890625 504.296875 100.2421875 c 0
 516.9765625 102.922851562 529.0078125 106.294921875 540.37890625 110.348632812 c 0
 562.797851562 118.326171875 577.985351562 139.252929688 577.985351562 163.043945312 c 2
 577.985351562 234.926757812 l 2
 577.985351562 265.647460938 553.080078125 290.552734375 522.359375 290.552734375 c 2
 492.103515625 290.552734375 l 2
 461.3828125 290.552734375 436.477539062 315.458007812 436.477539062 346.178710938 c 0
 436.477539062 376.899414062 461.3828125 401.8046875 492.103515625 401.8046875 c 2
 645.327148438 401.8046875 l 2
 676.047851562 401.8046875 700.953125 376.899414062 700.953125 346.178710938 c 2
 700.953125 83.1533203125 l 2
EndSplineSet
Validated: 33
EndChar

StartChar: H
Encoding: 72 72 38
Width: 669
Flags: W
LayerCount: 2
Fore
SplineSet
50 627.255859375 m 2
 50 661.208007812 77.5205078125 688.739257812 111.483398438 688.739257812 c 0
 145.446289062 688.739257812 172.966796875 661.208007812 172.966796875 627.255859375 c 2
 172.966796875 475.016601562 l 2
 172.966796875 441.053710938 200.498046875 413.533203125 234.450195312 413.533203125 c 2
 434.510742188 413.533203125 l 2
 468.473632812 413.533203125 495.994140625 441.064453125 495.994140625 475.016601562 c 2
 495.994140625 627.255859375 l 2
 495.994140625 661.21875 523.525390625 688.739257812 557.477539062 688.739257812 c 0
 591.440429688 688.739257812 618.9609375 661.208007812 618.9609375 627.255859375 c 2
 618.9609375 59.25390625 l 2
 618.9609375 25.291015625 591.4296875 -2.2294921875 557.477539062 -2.2294921875 c 0
 523.514648438 -2.2294921875 495.994140625 25.3017578125 495.994140625 59.25390625 c 2
 495.994140625 240.776367188 l 2
 495.994140625 274.739257812 468.462890625 302.259765625 434.510742188 302.259765625 c 2
 234.450195312 302.259765625 l 2
 200.487304688 302.259765625 172.966796875 274.728515625 172.966796875 240.776367188 c 2
 172.966796875 59.25390625 l 2
 172.966796875 25.291015625 145.435546875 -2.2294921875 111.483398438 -2.2294921875 c 0
 77.5205078125 -2.2294921875 50 25.3017578125 50 59.25390625 c 2
 50 627.255859375 l 2
EndSplineSet
Validated: 1
EndChar

StartChar: I
Encoding: 73 73 39
AltUni2: 0000cf.ffffffff.0 0000ce.ffffffff.0 0000cd.ffffffff.0 0000cc.ffffffff.0
Width: 223
Flags: W
LayerCount: 2
Fore
SplineSet
50 634.3359375 m 2
 50 668.298828125 77.53125 695.819335938 111.483398438 695.819335938 c 0
 145.435546875 695.819335938 172.966796875 668.288085938 172.966796875 634.3359375 c 2
 172.966796875 66.333984375 l 2
 172.966796875 32.3818359375 145.435546875 4.8505859375 111.483398438 4.8505859375 c 0
 77.53125 4.8505859375 50 32.3818359375 50 66.333984375 c 2
 50 634.3359375 l 2
EndSplineSet
Validated: 1
EndChar

StartChar: J
Encoding: 74 74 40
Width: 495
Flags: W
LayerCount: 2
Fore
SplineSet
180.361328125 640.194335938 m 0
 180.361328125 670.915039062 205.270507812 695.818359375 235.98046875 695.818359375 c 2
 389.204101562 695.818359375 l 2
 419.924804688 695.818359375 444.830078125 670.913085938 444.830078125 640.192382812 c 2
 444.830078125 196.142578125 l 2
 444.830078125 168.81640625 440.430664062 142.462890625 431.653320312 117.092773438 c 0
 422.875976562 91.7119140625 409.850585938 69.4228515625 392.620117188 50.236328125 c 0
 375.37890625 31.0498046875 353.73828125 15.7548828125 327.719726562 4.373046875 c 0
 301.701171875 -6.998046875 271.4453125 -12.705078125 236.962890625 -12.705078125 c 0
 182.299804688 -12.705078125 137.559570312 -0.0146484375 102.763671875 25.35546875 c 0
 83.7822265625 39.1806640625 68.3359375 57.458984375 56.423828125 80.1806640625 c 0
 39.5283203125 112.381835938 57.4609375 151.944335938 92.83984375 160.342773438 c 2
 101.865234375 162.483398438 l 2
 124.889648438 167.953125 149.588867188 158.700195312 161.5546875 138.28125 c 0
 165.770507812 131.092773438 170.89453125 124.682617188 176.936523438 119.040039062 c 0
 191.572265625 105.376953125 209.634765625 98.544921875 231.102539062 98.544921875 c 0
 266.233398438 98.544921875 290.143554688 110.4140625 302.833984375 134.172851562 c 0
 315.524414062 157.920898438 321.869140625 190.608398438 321.869140625 232.256835938 c 2
 321.869140625 528.942382812 l 2
 321.869140625 559.663085938 296.963867188 584.568359375 266.243164062 584.568359375 c 2
 235.987304688 584.568359375 l 2
 205.266601562 584.568359375 180.361328125 609.473632812 180.361328125 640.194335938 c 0
EndSplineSet
Validated: 33
EndChar

StartChar: K
Encoding: 75 75 41
Width: 628
Flags: W
LayerCount: 2
Fore
SplineSet
191.213867188 32.3818359375 m 2
 179.809570312 15.18359375 160.5703125 4.8505859375 139.946289062 4.8505859375 c 2
 111.485351562 4.8505859375 l 2
 77.533203125 4.8505859375 50.001953125 32.3818359375 50.001953125 66.333984375 c 2
 50.001953125 634.3359375 l 2
 50.001953125 668.288085938 77.533203125 695.819335938 111.485351562 695.819335938 c 0
 145.4375 695.819335938 172.96875 668.288085938 172.96875 634.3359375 c 2
 172.96875 211.255859375 l 1
 178.827148438 211.255859375 l 1
 446.932617188 665.5859375 l 2
 457.990234375 684.318359375 478.127929688 695.819335938 499.887695312 695.819335938 c 2
 516.19921875 695.819335938 l 2
 565.23046875 695.819335938 594.53515625 641.25390625 567.458007812 600.373046875 c 2
 399.393554688 346.698242188 l 2
 383.73046875 323.046875 386.270507812 291.75390625 405.5546875 270.946289062 c 2
 556.46484375 108.124023438 l 2
 592.935546875 68.7666015625 565.025390625 4.8505859375 511.3671875 4.8505859375 c 2
 507.086914062 4.8505859375 l 2
 489.5 4.8505859375 472.745117188 12.384765625 461.08203125 25.55078125 c 2
 357.1171875 142.84375 l 2
 330.3203125 173.077148438 282.153320312 169.693359375 259.842773438 136.01171875 c 2
 191.213867188 32.3818359375 l 2
EndSplineSet
Validated: 33
EndChar

StartChar: L
Encoding: 76 76 42
Width: 517
Flags: W
LayerCount: 2
Fore
SplineSet
50 640.194335938 m 2
 50.0107421875 670.915039062 74.9140625 695.822265625 105.634765625 695.822265625 c 2
 117.352539062 695.822265625 l 2
 148.073242188 695.822265625 172.978515625 670.916992188 172.978515625 640.196289062 c 2
 172.978515625 171.73828125 l 2
 172.978515625 141.017578125 197.883789062 116.112304688 228.604492188 116.112304688 c 2
 411.099609375 116.112304688 l 2
 441.8203125 116.112304688 466.725585938 91.20703125 466.725585938 60.486328125 c 0
 466.725585938 29.765625 441.8203125 4.8603515625 411.099609375 4.8603515625 c 2
 105.625976562 4.8603515625 l 2
 74.9052734375 4.8603515625 50 29.765625 50 60.486328125 c 2
 50 640.194335938 l 2
EndSplineSet
Validated: 1
EndChar

StartChar: M
Encoding: 77 77 43
Width: 844
Flags: W
LayerCount: 2
Fore
SplineSet
50 634.259765625 m 2
 50 666.201171875 75.8857421875 692.100585938 107.81640625 692.08984375 c 2
 735.821289062 692.08984375 l 2
 767.762695312 692.08984375 793.651367188 666.201171875 793.651367188 634.259765625 c 2
 793.651367188 58.951171875 l 2
 793.651367188 27.009765625 767.762695312 1.12109375 735.821289062 1.12109375 c 2
 734.373046875 1.12109375 l 2
 702.431640625 1.12109375 676.54296875 27.009765625 676.54296875 58.951171875 c 2
 676.54296875 574.981445312 l 1
 537.48046875 574.981445312 l 2
 505.5390625 574.981445312 479.650390625 549.092773438 479.650390625 517.151367188 c 2
 479.650390625 58.962890625 l 2
 479.650390625 27.021484375 453.76171875 1.1328125 421.8203125 1.1328125 c 0
 389.87890625 1.1328125 363.990234375 27.021484375 363.990234375 58.962890625 c 2
 363.990234375 517.151367188 l 2
 363.990234375 549.092773438 338.1015625 574.981445312 306.16015625 574.981445312 c 2
 167.108398438 574.981445312 l 1
 167.108398438 58.951171875 l 2
 167.108398438 27.009765625 141.219726562 1.12109375 109.278320312 1.12109375 c 2
 107.830078125 1.12109375 l 2
 75.888671875 1.12109375 50 27.009765625 50 58.951171875 c 2
 50 634.259765625 l 2
EndSplineSet
Validated: 33
EndChar

StartChar: N
Encoding: 78 78 44
AltUni2: 0000d1.ffffffff.0
Width: 723
Flags: W
LayerCount: 2
Fore
SplineSet
50 634.952148438 m 2
 50.0107421875 666.515625 75.5966796875 692.1015625 107.16015625 692.1015625 c 2
 615.515625 692.1015625 l 2
 647.079101562 692.1015625 672.665039062 666.515625 672.665039062 634.952148438 c 2
 672.665039062 58.28125 l 2
 672.665039062 26.7177734375 647.079101562 1.1318359375 615.515625 1.1318359375 c 2
 612.694335938 1.1318359375 l 2
 581.130859375 1.1318359375 555.544921875 26.7177734375 555.544921875 58.28125 c 2
 555.544921875 517.486328125 l 2
 555.544921875 548.99609375 530.045898438 574.560546875 498.536132812 574.635742188 c 2
 223.15625 575.327148438 l 2
 191.614257812 575.40234375 165.974609375 549.9140625 165.866210938 518.372070312 c 2
 164.298828125 58.0751953125 l 2
 164.190429688 26.587890625 138.63671875 1.12109375 107.149414062 1.12109375 c 0
 75.5859375 1.12109375 50 26.70703125 50 58.2705078125 c 2
 50 634.952148438 l 2
EndSplineSet
Validated: 33
EndChar

StartChar: O
Encoding: 79 79 45
AltUni2: 0000d8.ffffffff.0 0000d6.ffffffff.0 0000d5.ffffffff.0 0000d4.ffffffff.0 0000d3.ffffffff.0 0000d2.ffffffff.0
Width: 833
Flags: W
LayerCount: 2
Fore
SplineSet
77.326171875 196.306640625 m 0
 59.1015625 240.549804688 50 289.678710938 50 343.682617188 c 0
 50 398.97265625 59.1015625 449.236328125 77.326171875 494.462890625 c 0
 95.5400390625 539.678710938 120.758789062 578.224609375 152.959960938 610.112304688 c 0
 185.161132812 641.978515625 223.555664062 666.547851562 268.123046875 683.799804688 c 0
 312.690429688 701.030273438 361.657226562 709.65625 415.012695312 709.65625 c 0
 469.005859375 710.293945312 518.469726562 702.337890625 563.361328125 685.745117188 c 0
 608.252929688 669.15234375 646.9609375 644.907226562 679.497070312 613.030273438 c 0
 712.022460938 581.142578125 737.392578125 542.76953125 755.6171875 497.8671875 c 0
 773.8203125 452.975585938 782.943359375 402.86328125 782.943359375 347.573242188 c 0
 782.943359375 293.55859375 773.8203125 244.440429688 755.6171875 200.208007812 c 0
 737.392578125 155.954101562 712.022460938 117.89453125 679.497070312 86.0283203125 c 0
 646.950195312 54.140625 608.252929688 29.2470703125 563.361328125 11.357421875 c 0
 518.469726562 -6.5322265625 469.005859375 -15.7958984375 415.012695312 -16.455078125 c 0
 361.657226562 -16.455078125 312.690429688 -7.8291015625 268.123046875 9.412109375 c 0
 223.555664062 26.642578125 185.171875 51.0390625 152.959960938 82.6025390625 c 0
 120.758789062 114.155273438 95.5400390625 152.041992188 77.326171875 196.306640625 c 0
195.905273438 448.111328125 m 0
 184.5234375 418.1796875 178.828125 385.979492188 178.828125 351.497070312 c 0
 178.828125 314.41015625 184.524414062 280.251953125 195.90625 249.0234375 c 0
 207.288085938 217.794921875 223.3828125 190.79296875 244.212890625 168.017578125 c 0
 265.032226562 145.231445312 289.915039062 127.352539062 318.873046875 114.337890625 c 0
 347.8203125 101.3125 380.194335938 94.8271484375 415.984375 94.8271484375 c 0
 451.752929688 94.8271484375 484.299804688 101.3125 513.58203125 114.337890625 c 0
 542.853515625 127.352539062 567.8984375 145.2421875 588.728515625 168.017578125 c 0
 609.547851562 190.782226562 625.654296875 217.784179688 637.036132812 249.0234375 c 0
 648.41796875 280.251953125 654.114257812 314.409179688 654.114257812 351.49609375 c 0
 654.114257812 385.978515625 648.41796875 418.1796875 637.036132812 448.111328125 c 0
 625.654296875 478.032226562 609.547851562 504.234375 588.728515625 526.674804688 c 0
 567.8984375 549.125976562 542.853515625 566.69140625 513.58203125 579.37109375 c 0
 484.299804688 592.061523438 451.752929688 598.40625 415.984375 598.40625 c 0
 380.194335938 598.40625 347.8203125 592.061523438 318.873046875 579.37109375 c 0
 289.915039062 566.680664062 265.032226562 549.115234375 244.212890625 526.674804688 c 0
 223.3828125 504.223632812 207.276367188 478.032226562 195.905273438 448.111328125 c 0
EndSplineSet
Validated: 33
EndChar

StartChar: P
Encoding: 80 80 46
Width: 590
Flags: W
LayerCount: 2
Fore
SplineSet
264.98828125 410.883789062 m 2
 388.994140625 410.89453125 411.533203125 478.299804688 411.65234375 507.268554688 c 0
 411.65234375 507.506835938 411.65234375 507.733398438 411.65234375 507.971679688 c 0
 411.65234375 529.439453125 407.090820312 546.518554688 397.989257812 559.208984375 c 0
 388.866210938 571.899414062 377.159179688 581.66015625 362.858398438 588.4921875 c 0
 348.546875 595.32421875 332.602539062 599.712890625 315.037109375 601.658203125 c 0
 297.471679688 603.614257812 280.543945312 604.586914062 264.286132812 604.586914062 c 2
 82.3203125 604.586914062 l 2
 64.4736328125 604.586914062 50 619.049804688 50 636.896484375 c 2
 50 677.669921875 l 2
 50 695.516601562 64.4736328125 709.979492188 82.3203125 709.979492188 c 2
 285.752929688 709.979492188 l 2
 318.9375 709.979492188 350.965820312 706.71484375 381.880859375 700.21875 c 0
 412.774414062 693.711914062 439.94921875 682.805664062 463.373046875 667.532226562 c 0
 486.796875 652.237304688 505.486328125 631.743164062 519.484375 606.048828125 c 0
 533.471679688 580.34375 540.465820312 548.293945312 540.465820312 509.91015625 c 0
 540.465820312 466.315429688 532.974609375 431.184570312 518.025390625 404.506835938 c 0
 503.0546875 377.818359375 482.895507812 357.172851562 457.514648438 342.537109375 c 0
 436.609375 330.473632812 412.947265625 321.62109375 386.529296875 315.95703125 c 0
 380.875976562 314.74609375 375.092773438 313.686523438 369.190429688 312.767578125 c 0
 363.526367188 311.891601562 357.819335938 311.081054688 352.079101562 310.345703125 c 0
 323.8125 306.74609375 294.551757812 304.952148438 264.274414062 304.952148438 c 2
 237.920898438 304.952148438 l 2
 203.96875 304.952148438 176.4375 277.420898438 176.4375 243.46875 c 2
 176.4375 80.484375 l 2
 176.4375 46.5322265625 148.90625 19.0009765625 114.954101562 19.0009765625 c 0
 81.001953125 19.0009765625 53.470703125 46.5322265625 53.470703125 80.484375 c 2
 53.470703125 382.012695312 l 2
 53.470703125 398.215820312 66.6904296875 411.31640625 82.8935546875 411.17578125 c 2
 264.98828125 410.883789062 l 2
EndSplineSet
Validated: 33
EndChar

StartChar: Q
Encoding: 81 81 47
Width: 833
Flags: W
LayerCount: 2
Fore
SplineSet
755.616210938 524.75 m 0
 773.819335938 479.858398438 782.94140625 429.7578125 782.952148438 374.467773438 c 0
 782.952148438 320.463867188 773.829101562 271.334960938 755.625976562 227.102539062 c 0
 737.401367188 182.859375 712.03125 144.7890625 679.505859375 112.922851562 c 0
 646.969726562 81.03515625 608.26171875 56.1416015625 563.370117188 38.251953125 c 0
 537.837890625 28.0908203125 510.803710938 20.7724609375 482.321289062 16.189453125 c 0
 473.684570312 14.8056640625 467.231445312 7.552734375 467.231445312 -1.1923828125 c 2
 467.231445312 -13.7314453125 l 2
 467.231445312 -23.44921875 459.3515625 -31.3291015625 449.633789062 -31.3291015625 c 2
 383.318359375 -31.3291015625 l 2
 373.600585938 -31.3291015625 365.720703125 -23.44921875 365.720703125 -13.7314453125 c 2
 365.720703125 -2.349609375 l 2
 365.720703125 6.5029296875 359.116210938 13.810546875 350.349609375 15.0751953125 c 0
 321.456054688 19.248046875 294.021484375 26.28515625 268.122070312 36.3056640625 c 0
 223.5546875 53.525390625 185.16015625 77.9326171875 152.958984375 109.49609375 c 0
 120.7578125 141.048828125 95.5390625 178.935546875 77.3251953125 223.200195312 c 0
 59.1005859375 267.432617188 49.9990234375 316.55078125 49.9990234375 370.565429688 c 0
 49.9990234375 425.85546875 59.1005859375 476.108398438 77.3251953125 521.345703125 c 0
 95.5390625 566.561523438 120.7578125 605.107421875 152.958984375 636.995117188 c 0
 185.170898438 668.872070312 223.5546875 693.430664062 268.122070312 710.682617188 c 0
 312.689453125 727.90234375 361.65625 736.5390625 415.01171875 736.5390625 c 0
 469.004882812 737.176757812 518.46875 729.220703125 563.360351562 712.627929688 c 0
 608.251953125 696.03515625 646.94921875 671.790039062 679.49609375 639.913085938 c 0
 712.021484375 608.025390625 737.391601562 569.641601562 755.616210938 524.75 c 0
637.036132812 275.885742188 m 0
 648.407226562 307.114257812 654.11328125 341.283203125 654.102539062 378.359375 c 0
 654.102539062 412.841796875 648.40625 445.04296875 637.024414062 474.974609375 c 0
 625.642578125 504.89453125 609.536132812 531.0859375 588.716796875 553.537109375 c 0
 567.88671875 575.977539062 542.841796875 593.54296875 513.5703125 606.233398438 c 0
 484.288085938 618.923828125 451.741210938 625.268554688 415.97265625 625.268554688 c 0
 380.182617188 625.268554688 347.80859375 618.923828125 318.861328125 606.233398438 c 0
 289.903320312 593.553710938 265.020507812 575.98828125 244.201171875 553.537109375 c 0
 223.37109375 531.096679688 207.276367188 504.89453125 195.89453125 474.973632812 c 0
 184.512695312 445.041992188 178.81640625 412.840820312 178.81640625 378.358398438 c 0
 178.81640625 341.271484375 184.512695312 307.114257812 195.89453125 275.885742188 c 0
 207.265625 244.646484375 223.372070312 217.64453125 244.202148438 194.879882812 c 0
 265.021484375 172.104492188 289.915039062 154.21484375 318.862304688 141.200195312 c 0
 326.7421875 137.654296875 334.881835938 134.595703125 343.280273438 132.0234375 c 0
 354.446289062 128.596679688 365.709960938 137.297851562 365.709960938 148.982421875 c 2
 365.709960938 149.1875 l 2
 365.709960938 158.905273438 373.58984375 166.78515625 383.307617188 166.78515625 c 2
 449.623046875 166.78515625 l 2
 459.340820312 166.78515625 467.220703125 158.905273438 467.220703125 149.1875 c 0
 467.220703125 137.502929688 478.495117188 128.791015625 489.661132812 132.239257812 c 0
 497.865234375 134.768554688 505.83203125 137.751953125 513.58203125 141.200195312 c 0
 542.853515625 154.21484375 567.8984375 172.09375 588.728515625 194.879882812 c 0
 609.547851562 217.655273438 625.654296875 244.657226562 637.036132812 275.885742188 c 0
EndSplineSet
Validated: 33
EndChar

StartChar: R
Encoding: 82 82 48
Width: 620
Flags: W
LayerCount: 2
Fore
SplineSet
564.329101562 61.7724609375 m 2
 575.678710938 42.3154296875 561.646484375 17.8759765625 539.130859375 17.8759765625 c 2
 452.850585938 17.8759765625 l 2
 442.430664062 17.8759765625 432.810546875 23.431640625 427.600585938 32.4462890625 c 2
 278.528320312 290.390625 l 2
 273.318359375 299.405273438 263.6875 304.9609375 253.278320312 304.9609375 c 2
 234.827148438 304.9609375 l 2
 218.720703125 304.9609375 205.663085938 291.903320312 205.663085938 275.786132812 c 2
 205.663085938 48.1728515625 l 2
 205.663085938 32.06640625 192.60546875 18.998046875 176.48828125 18.998046875 c 2
 111.859375 18.998046875 l 2
 95.7529296875 18.998046875 82.6845703125 32.0556640625 82.6845703125 48.1728515625 c 2
 82.6845703125 382.010742188 l 2
 82.6845703125 398.213867188 95.904296875 411.314453125 112.107421875 411.173828125 c 2
 153.928710938 410.817382812 l 2
 176.650390625 410.623046875 190.864257812 435.322265625 179.276367188 454.865234375 c 2
 54.125 665.940429688 l 2
 42.591796875 685.38671875 56.611328125 709.989257812 79.2138671875 709.989257812 c 2
 314.966796875 709.989257812 l 2
 348.151367188 709.989257812 380.1796875 706.724609375 411.094726562 700.228515625 c 0
 441.98828125 693.721679688 469.163085938 682.815429688 492.586914062 667.541992188 c 0
 516.010742188 652.247070312 534.700195312 631.752929688 548.698242188 606.05859375 c 0
 562.685546875 580.353515625 569.6796875 548.303710938 569.6796875 509.919921875 c 0
 569.6796875 466.325195312 562.188476562 431.194335938 547.239257812 404.516601562 c 0
 532.268554688 377.828125 512.109375 357.182617188 486.728515625 342.546875 c 0
 475.421875 336.029296875 463.315429688 330.440429688 450.3984375 325.791992188 c 0
 433.08203125 319.565429688 425.407226562 299.427734375 434.692382812 283.548828125 c 2
 564.329101562 61.7724609375 l 2
268.473632812 560.368164062 m 2
 344.724609375 433.823242188 l 2
 351.9453125 421.8359375 366.635742188 416.77734375 379.823242188 421.436523438 c 0
 382.13671875 422.2578125 384.41796875 423.122070312 386.676757812 424.041015625 c 0
 402.609375 430.537109375 415.61328125 440.297851562 425.708984375 453.323242188 c 0
 435.783203125 466.327148438 440.831054688 484.551757812 440.831054688 507.975585938 c 0
 440.831054688 529.443359375 436.26953125 546.522460938 427.16796875 559.212890625 c 0
 418.044921875 571.903320312 406.337890625 581.6640625 392.037109375 588.49609375 c 0
 377.725585938 595.327148438 361.78125 599.715820312 344.215820312 601.661132812 c 0
 326.650390625 603.6171875 309.72265625 604.58984375 293.46484375 604.58984375 c 0
 270.764648438 604.58984375 256.766601562 579.814453125 268.473632812 560.368164062 c 2
EndSplineSet
Validated: 33
EndChar

StartChar: S
Encoding: 83 83 49
Width: 557
Flags: W
LayerCount: 2
Fore
SplineSet
455.4609375 606.393554688 m 2
 451.990234375 602.692382812 l 2
 432.760742188 582.4140625 402.364257812 579.884765625 378.443359375 594.358398438 c 0
 372.930664062 597.6875 367.072265625 600.6171875 360.845703125 603.125 c 0
 339.032226562 611.913085938 316.10546875 616.291015625 292.033203125 616.291015625 c 0
 277.7109375 616.291015625 263.885742188 614.669921875 250.557617188 611.416015625 c 0
 237.208007812 608.151367188 225.176757812 602.952148438 214.443359375 595.807617188 c 0
 203.709960938 588.629882812 195.073242188 579.366210938 188.577148438 567.984375 c 0
 182.0703125 556.602539062 178.827148438 543.1015625 178.827148438 527.493164062 c 0
 178.827148438 504.069335938 186.956054688 486.168945312 203.224609375 473.813476562 c 0
 219.482421875 461.447265625 239.65234375 450.713867188 263.735351562 441.612304688 c 0
 287.796875 432.489257812 314.150390625 423.711914062 342.784179688 415.258789062 c 0
 371.407226562 406.794921875 397.760742188 395.077148438 421.833007812 380.127929688 c 0
 445.89453125 365.146484375 466.064453125 345.311523438 482.34375 320.6015625 c 0
 498.58984375 295.858398438 506.740234375 263.01953125 506.740234375 222.030273438 c 0
 506.740234375 184.943359375 499.908203125 152.569335938 486.245117188 124.9296875 c 0
 472.58203125 97.2685546875 454.184570312 74.3310546875 431.095703125 56.1171875 c 0
 407.99609375 37.892578125 381.15625 24.2294921875 350.576171875 15.1279296875 c 0
 319.985351562 6.0263671875 287.784179688 1.46484375 253.961914062 1.46484375 c 0
 211.02734375 1.46484375 169.703125 8.6318359375 130.021484375 22.9326171875 c 0
 112.110351562 29.3857421875 95.3232421875 37.8388671875 79.66015625 48.26953125 c 0
 48.9072265625 68.763671875 46.0751953125 113.092773438 72.623046875 138.80859375 c 2
 77.4443359375 143.478515625 l 2
 98.5009765625 163.875976562 131.361328125 165.713867188 154.4609375 147.662109375 c 0
 162.114257812 141.684570312 170.39453125 136.376953125 179.301757812 131.750976562 c 0
 203.698242188 119.060546875 229.565429688 112.7265625 256.891601562 112.7265625 c 0
 271.192382812 112.7265625 285.514648438 114.671875 299.826171875 118.57421875 c 0
 314.126953125 122.487304688 327.15234375 128.334960938 338.870117188 136.150390625 c 0
 350.577148438 143.955078125 360.002929688 153.8671875 367.180664062 165.919921875 c 0
 374.325195312 177.951171875 377.9140625 191.776367188 377.9140625 207.395507812 c 0
 377.9140625 232.776367188 369.774414062 252.287109375 353.516601562 265.950195312 c 0
 337.237304688 279.61328125 317.067382812 291.157226562 293.005859375 300.59375 c 0
 268.922851562 310.01953125 242.580078125 318.969726562 213.95703125 327.43359375 c 0
 185.3125 335.875976562 158.969726562 347.442382812 134.908203125 362.078125 c 0
 110.825195312 376.713867188 90.6552734375 396.235351562 74.3974609375 420.631835938 c 0
 58.12890625 445.028320312 50 477.7265625 50 518.7265625 c 0
 50 554.495117188 57.3076171875 585.41015625 71.9541015625 611.439453125 c 0
 86.58984375 637.458007812 105.776367188 659.098632812 129.53515625 676.350585938 c 0
 153.283203125 693.581054688 180.436523438 706.43359375 211.02734375 714.897460938 c 0
 241.596679688 723.33984375 272.825195312 727.587890625 304.712890625 727.587890625 c 0
 341.140625 727.587890625 376.444335938 722.053710938 410.61328125 710.99609375 c 0
 420.158203125 707.904296875 429.443359375 704.250976562 438.447265625 700.03515625 c 0
 474.572265625 683.162109375 482.895507812 635.319335938 455.4609375 606.393554688 c 2
EndSplineSet
Validated: 33
EndChar

StartChar: T
Encoding: 84 84 50
Width: 647
Flags: W
LayerCount: 2
Fore
SplineSet
261.799804688 543.104492188 m 2
 261.778320312 573.825195312 236.876953125 598.73046875 206.145507812 598.73046875 c 2
 105.62890625 598.73046875 l 2
 74.908203125 598.73046875 50.0029296875 623.635742188 50.0029296875 654.356445312 c 0
 50.0029296875 685.077148438 74.908203125 709.982421875 105.62890625 709.982421875 c 2
 540.901367188 709.982421875 l 2
 571.622070312 709.982421875 596.52734375 685.077148438 596.52734375 654.356445312 c 0
 596.52734375 623.635742188 571.622070312 598.73046875 540.901367188 598.73046875 c 2
 440.384765625 598.73046875 l 2
 409.6640625 598.73046875 384.758789062 573.825195312 384.758789062 543.104492188 c 2
 384.758789062 74.646484375 l 2
 384.758789062 43.92578125 359.853515625 19.0205078125 329.1328125 19.0205078125 c 2
 317.42578125 19.0205078125 l 2
 286.705078125 19.0205078125 261.799804688 43.92578125 261.799804688 74.646484375 c 2
 261.799804688 543.104492188 l 2
EndSplineSet
Validated: 1
EndChar

StartChar: U
Encoding: 85 85 51
AltUni2: 0000dc.ffffffff.0 0000db.ffffffff.0 0000da.ffffffff.0 0000d9.ffffffff.0
Width: 723
Flags: W
LayerCount: 2
Fore
SplineSet
672.654296875 50.8232421875 m 2
 672.643554688 19.259765625 647.057617188 -6.326171875 615.504882812 -6.326171875 c 2
 107.149414062 -6.326171875 l 2
 75.5859375 -6.326171875 50 19.259765625 50 50.8232421875 c 2
 50 627.494140625 l 2
 50 659.057617188 75.5859375 684.643554688 107.149414062 684.643554688 c 2
 109.959960938 684.643554688 l 2
 141.5234375 684.643554688 167.109375 659.057617188 167.109375 627.494140625 c 2
 167.109375 168.278320312 l 2
 167.109375 136.768554688 192.608398438 111.204101562 224.118164062 111.12890625 c 2
 499.498046875 110.4375 l 2
 531.040039062 110.362304688 556.690429688 135.850585938 556.788085938 167.392578125 c 2
 558.35546875 627.689453125 l 2
 558.463867188 659.176757812 584.017578125 684.643554688 615.504882812 684.643554688 c 0
 647.068359375 684.643554688 672.654296875 659.057617188 672.654296875 627.494140625 c 2
 672.654296875 50.8232421875 l 2
EndSplineSet
Validated: 33
EndChar

StartChar: V
Encoding: 86 86 52
Width: 699
Flags: W
LayerCount: 2
Fore
SplineSet
54.2783203125 601.41015625 m 2
 38.572265625 641.39453125 68.0478515625 684.641601562 111.015625 684.641601562 c 2
 120.30078125 684.641601562 l 2
 145.995117188 684.641601562 168.921875 668.53515625 177.645507812 644.365234375 c 2
 295.013671875 319.012695312 l 2
 314.276367188 265.603515625 389.693359375 265.225585938 409.485351562 318.451171875 c 2
 530.928710938 644.927734375 l 2
 539.803710938 668.794921875 562.58984375 684.630859375 588.056640625 684.630859375 c 0
 631.272460938 684.630859375 660.760742188 640.907226562 644.579101562 600.84765625 c 2
 414.684570312 31.7978515625 l 2
 405.377929688 8.751953125 383.013671875 -6.3271484375 358.163085938 -6.3271484375 c 2
 334.458007812 -6.3271484375 l 2
 309.390625 -6.3271484375 286.885742188 9.0224609375 277.719726562 32.349609375 c 2
 54.2783203125 601.41015625 l 2
EndSplineSet
Validated: 33
EndChar

StartChar: W
Encoding: 87 87 53
Width: 844
Flags: W
LayerCount: 2
Fore
SplineSet
734.375976562 684.642578125 m 2
 735.837890625 684.642578125 l 2
 767.768554688 684.642578125 793.66796875 658.75390625 793.66796875 626.8125 c 2
 793.66796875 51.50390625 l 2
 793.66796875 19.5625 767.779296875 -6.326171875 735.837890625 -6.326171875 c 2
 107.833007812 -6.326171875 l 2
 75.8916015625 -6.326171875 50.0029296875 19.5625 50.0029296875 51.50390625 c 2
 50.0029296875 626.8125 l 2
 50.0029296875 658.75390625 75.8916015625 684.642578125 107.833007812 684.642578125 c 2
 109.28125 684.642578125 l 2
 141.22265625 684.642578125 167.111328125 658.75390625 167.111328125 626.8125 c 2
 167.111328125 110.79296875 l 1
 306.173828125 110.79296875 l 2
 338.115234375 110.79296875 364.00390625 136.681640625 364.00390625 168.623046875 c 2
 364.00390625 626.811523438 l 2
 364.00390625 658.752929688 389.892578125 684.641601562 421.833984375 684.641601562 c 0
 453.775390625 684.641601562 479.6640625 658.752929688 479.6640625 626.811523438 c 2
 479.6640625 168.612304688 l 2
 479.6640625 136.670898438 505.552734375 110.782226562 537.494140625 110.782226562 c 2
 676.545898438 110.782226562 l 1
 676.545898438 626.8125 l 2
 676.545898438 658.75390625 702.434570312 684.642578125 734.375976562 684.642578125 c 2
EndSplineSet
Validated: 1
EndChar

StartChar: X
Encoding: 88 88 54
Width: 659
Flags: W
LayerCount: 2
Fore
SplineSet
218.482421875 320.236328125 m 2
 232.642578125 341.022460938 232.4921875 368.413085938 218.083007812 389.05859375 c 2
 78.2744140625 589.302734375 l 2
 50.212890625 629.4921875 78.9658203125 684.65234375 127.986328125 684.65234375 c 2
 133.618164062 684.65234375 l 2
 154.329101562 684.65234375 173.61328125 674.081054688 184.747070312 656.61328125 c 2
 278.420898438 509.6484375 l 2
 302.331054688 472.139648438 357.15625 472.291015625 380.861328125 509.9296875 c 2
 473.065429688 656.33203125 l 2
 484.166992188 673.961914062 503.537109375 684.65234375 524.3671875 684.65234375 c 2
 525.047851562 684.65234375 l 2
 573.852539062 684.65234375 602.659179688 629.935546875 575.041015625 589.703125 c 2
 437.48046875 389.296875 l 2
 423.22265625 368.521484375 423.297851562 341.086914062 437.674804688 320.397460938 c 2
 598.475585938 88.9033203125 l 2
 626.396484375 48.6923828125 597.6328125 -6.31640625 548.676757812 -6.31640625 c 2
 542.061523438 -6.31640625 l 2
 521.166992188 -6.31640625 501.7421875 4.4501953125 490.651367188 22.1669921875 c 2
 377.499023438 203.083984375 l 2
 353.71875 241.111328125 298.298828125 241.046875 274.604492188 202.954101562 c 2
 162.21875 22.2861328125 l 2
 151.150390625 4.494140625 131.682617188 -6.3154296875 110.734375 -6.3154296875 c 0
 62.0380859375 -6.3154296875 33.208984375 48.1962890625 60.6220703125 88.4501953125 c 2
 218.482421875 320.236328125 l 2
EndSplineSet
Validated: 33
EndChar

StartChar: Y
Encoding: 89 89 55
AltUni2: 0000dd.ffffffff.0
Width: 639
Flags: W
LayerCount: 2
Fore
SplineSet
257.8203125 289.10546875 m 2
 257.841796875 300.963867188 254.37109375 312.5625 247.852539062 322.474609375 c 2
 60.08203125 608.361328125 l 2
 33.5234375 648.788085938 62.525390625 702.532226562 110.897460938 702.532226562 c 2
 118.506835938 702.532226562 l 2
 139.595703125 702.532226562 159.171875 691.603515625 170.251953125 673.66015625 c 2
 270.80078125 510.697265625 l 2
 294.484375 472.313476562 350.239257812 472.172851562 374.1171875 510.427734375 c 2
 476.158203125 673.930664062 l 2
 487.270507812 691.72265625 506.759765625 702.54296875 527.73046875 702.54296875 c 0
 576.102539062 702.54296875 605.104492188 648.798828125 578.545898438 608.372070312 c 2
 390.775390625 322.485351562 l 2
 384.2578125 312.573242188 380.798828125 300.974609375 380.798828125 289.10546875 c 2
 380.798828125 72.3662109375 l 2
 380.798828125 38.7919921875 353.581054688 11.57421875 319.99609375 11.57421875 c 2
 318.623046875 11.57421875 l 2
 285.048828125 11.57421875 257.8203125 38.7919921875 257.8203125 72.3662109375 c 2
 257.8203125 289.10546875 l 2
EndSplineSet
Validated: 33
EndChar

StartChar: Z
Encoding: 90 90 56
Width: 628
Flags: W
LayerCount: 2
Fore
SplineSet
50 103.540039062 m 2
 49.9892578125 116.036132812 54.185546875 128.166015625 61.9140625 137.969726562 c 2
 347.984375 501.23046875 l 2
 376.715820312 537.72265625 350.73046875 591.272460938 304.282226562 591.272460938 c 2
 111.474609375 591.272460938 l 2
 80.75390625 591.272460938 55.8486328125 616.177734375 55.8486328125 646.8984375 c 0
 55.8486328125 677.619140625 80.75390625 702.524414062 111.474609375 702.524414062 c 2
 516.4921875 702.524414062 l 2
 547.212890625 702.524414062 572.118164062 677.619140625 572.118164062 646.8984375 c 2
 572.118164062 610.665039062 l 2
 572.118164062 598.104492188 567.870117188 585.911132812 560.065429688 576.07421875 c 2
 271.897460938 213.029296875 l 2
 242.9609375 176.569335938 268.924804688 122.814453125 315.469726562 122.814453125 c 2
 522.350585938 122.814453125 l 2
 553.08203125 122.814453125 577.975585938 97.9091796875 577.975585938 67.1884765625 c 0
 577.975585938 36.4677734375 553.0703125 11.5625 522.349609375 11.5625 c 2
 105.625976562 11.5625 l 2
 74.89453125 11.5625 50 36.4677734375 50 67.1884765625 c 2
 50 103.540039062 l 2
EndSplineSet
Validated: 33
EndChar

StartChar: asciicircum
Encoding: 94 94 57
Width: 532
Flags: W
LayerCount: 2
Fore
SplineSet
439.28125 887.71484375 m 2
 470.85546875 878.700195312 489.133789062 845.794921875 480.129882812 814.220703125 c 0
 472.66015625 788.10546875 448.857421875 771.091796875 422.990234375 771.091796875 c 0
 417.575195312 771.091796875 412.083984375 771.827148438 406.625 773.39453125 c 2
 271.075195312 812.114257812 l 1
 124.791992188 773.114257812 l 2
 93.06640625 764.661132812 60.498046875 783.512695312 52.0341796875 815.23828125 c 0
 43.5703125 846.953125 62.4326171875 879.532226562 94.158203125 887.99609375 c 2
 256.298828125 931.233398438 l 2
 266.686523438 934.000976562 277.615234375 933.903320312 287.94921875 930.952148438 c 2
 439.28125 887.71484375 l 2
EndSplineSet
Validated: 33
EndChar

StartChar: a
Encoding: 97 97 58
AltUni2: 0000e5.ffffffff.0 0000e4.ffffffff.0 0000e3.ffffffff.0 0000e1.ffffffff.0
Width: 741
Flags: W
LayerCount: 2
Fore
SplineSet
170.46484375 17.3681640625 m 2
 162.790039062 14.0283203125 154.497070312 12.2978515625 146.109375 12.2978515625 c 2
 111.216796875 12.2978515625 l 2
 67.265625 12.2978515625 37.669921875 57.275390625 55.0517578125 97.6484375 c 2
 300.025390625 666.3203125 l 2
 309.689453125 688.75 331.7734375 703.27734375 356.19140625 703.27734375 c 2
 382.2421875 703.27734375 l 2
 406.584960938 703.27734375 428.603515625 688.8359375 438.321289062 666.514648438 c 2
 685.705078125 97.8427734375 l 2
 703.270507812 57.4482421875 673.674804688 12.2978515625 629.626953125 12.2978515625 c 2
 626.903320312 12.2978515625 l 2
 601.803710938 12.2978515625 579.254882812 27.63671875 570.0234375 50.9853515625 c 0
 544.232421875 116.28515625 469.463867188 147.221679688 405.072265625 119.2578125 c 2
 170.46484375 17.3681640625 l 2
427.229492188 252.407226562 m 2
 457.225585938 265.486328125 471.602539062 299.890625 459.831054688 330.4375 c 2
 430.137695312 407.487304688 l 2
 409.9453125 459.870117188 335.75 459.643554688 315.881835938 407.142578125 c 2
 275.076171875 299.340820312 l 2
 255.921875 248.720703125 307.115234375 200.002929688 356.73046875 221.643554688 c 2
 427.229492188 252.407226562 l 2
EndSplineSet
Validated: 33
EndChar

StartChar: b
Encoding: 98 98 59
Width: 610
Flags: W
LayerCount: 2
Fore
SplineSet
98.177734375 597.573242188 m 2
 71.6083984375 597.508789062 50.0166015625 619.052734375 50.0166015625 645.643554688 c 2
 50.0166015625 655.188476562 l 2
 50.0166015625 681.747070312 71.548828125 703.268554688 98.0966796875 703.268554688 c 2
 319.375976562 703.268554688 l 2
 345.39453125 703.268554688 371.099609375 700.166015625 396.469726562 693.994140625 c 0
 421.83984375 687.80078125 444.442382812 677.7265625 464.298828125 663.739257812 c 0
 484.133789062 649.741210938 500.240234375 631.689453125 512.606445312 609.573242188 c 0
 524.961914062 587.446289062 531.14453125 560.779296875 531.14453125 529.540039062 c 0
 531.14453125 490.506835938 520.076171875 458.294921875 497.959960938 432.924804688 c 0
 475.833007812 407.5546875 446.875 389.330078125 411.106445312 378.272460938 c 1
 411.106445312 376.31640625 l 1
 432.57421875 373.7109375 452.58203125 367.6796875 471.130859375 358.264648438 c 0
 489.668945312 348.828125 505.439453125 336.796875 518.46484375 322.150390625 c 0
 531.479492188 307.514648438 541.715820312 290.586914062 549.20703125 271.400390625 c 0
 556.676757812 252.203125 560.427734375 231.53515625 560.427734375 209.4296875 c 0
 560.427734375 171.694335938 552.936523438 140.29296875 537.9765625 115.248046875 c 0
 522.995117188 90.19140625 503.333007812 70.021484375 478.92578125 54.7373046875 c 0
 454.529296875 39.4423828125 426.543945312 28.5361328125 395.001953125 22.0400390625 c 0
 363.438476562 15.533203125 331.399414062 12.279296875 298.86328125 12.279296875 c 2
 98.0791015625 12.279296875 l 2
 71.5205078125 12.279296875 49.9990234375 33.8115234375 49.9990234375 60.359375 c 2
 49.9990234375 387.559570312 l 2
 49.9990234375 413.98828125 71.3369140625 435.466796875 97.765625 435.639648438 c 2
 349.94921875 437.282226562 l 2
 365.92578125 437.282226562 376.443359375 444.189453125 387.84765625 455.59375 c 0
 387.879882812 455.625976562 387.912109375 455.658203125 387.944335938 455.690429688 c 0
 401.423828125 470.1640625 408.168945312 487.956054688 408.168945312 509.06640625 c 0
 408.168945312 538.986328125 397.586914062 561.286132812 376.454101562 575.921875 c 0
 355.299804688 590.557617188 321.315429688 597.88671875 274.467773438 597.88671875 c 2
 259.345703125 597.88671875 l 1
 98.177734375 597.573242188 l 2
172.983398438 268.708984375 m 2
 172.983398438 165.78125 l 2
 172.983398438 139.22265625 194.515625 117.701171875 221.063476562 117.701171875 c 2
 286.190429688 117.701171875 l 2
 301.809570312 117.701171875 318.54296875 118.673828125 336.454101562 120.629882812 c 0
 354.34375 122.5859375 370.763671875 127.125976562 385.745117188 134.29296875 c 0
 400.705078125 141.44921875 413.071289062 151.696289062 422.83203125 165.03515625 c 0
 432.592773438 178.36328125 437.467773438 196.415039062 437.467773438 219.201171875 c 0
 437.467773438 255.62890625 425.587890625 281.009765625 401.850585938 295.321289062 c 0
 378.091796875 309.622070312 341.166992188 316.7890625 291.076171875 316.7890625 c 2
 221.063476562 316.7890625 l 2
 194.504882812 316.7890625 172.983398438 295.256835938 172.983398438 268.708984375 c 2
EndSplineSet
Validated: 33
EndChar

StartChar: c
Encoding: 99 99 60
AltUni2: 0000e7.ffffffff.0
Width: 696
Flags: W
LayerCount: 2
Fore
SplineSet
605.322265625 573.543945312 m 2
 597.626953125 567.879882812 l 2
 578.061523438 553.514648438 551.005859375 553.579101562 532.229492188 568.9609375 c 0
 517.0859375 581.359375 502.245117188 590.341796875 487.706054688 595.930664062 c 0
 463.947265625 605.032226562 440.047851562 609.59375 415.975585938 609.59375 c 0
 380.185546875 609.59375 347.811523438 603.249023438 318.875 590.55859375 c 0
 289.927734375 577.868164062 265.034179688 560.302734375 244.21484375 537.862304688 c 0
 223.374023438 515.411132812 207.279296875 489.219726562 195.897460938 459.298828125 c 0
 184.515625 429.3671875 178.830078125 397.155273438 178.830078125 362.684570312 c 0
 178.830078125 325.59765625 184.515625 291.440429688 195.897460938 260.211914062 c 0
 207.279296875 228.983398438 223.374023438 201.981445312 244.21484375 179.206054688 c 0
 265.034179688 156.419921875 289.916992188 138.530273438 318.875 125.526367188 c 0
 347.811523438 112.500976562 380.185546875 106.004882812 415.975585938 106.004882812 c 0
 443.939453125 106.004882812 471.114257812 112.673828125 497.467773438 126.012695312 c 0
 513.022460938 133.87109375 527.939453125 144.518554688 542.240234375 157.943359375 c 0
 560.842773438 175.400390625 589.325195312 177.010742188 610.111328125 162.212890625 c 2
 623.3203125 152.80859375 l 2
 651.857421875 132.498046875 653.78125 90.892578125 627.438476562 67.8037109375 c 0
 606.586914062 49.5361328125 583.595703125 34.943359375 558.463867188 24.0146484375 c 0
 513.572265625 4.4931640625 465.740234375 -5.267578125 415.000976562 -5.267578125 c 0
 361.645507812 -5.267578125 312.66796875 3.369140625 268.111328125 20.5888671875 c 0
 223.543945312 37.8193359375 185.16015625 62.2265625 152.958984375 93.7900390625 c 0
 120.7578125 125.342773438 95.5283203125 163.229492188 77.3251953125 207.483398438 c 0
 59.1005859375 251.7265625 49.9990234375 300.844726562 49.9990234375 354.848632812 c 0
 49.9990234375 410.149414062 59.1005859375 460.40234375 77.3251953125 505.639648438 c 0
 95.5283203125 550.85546875 120.7578125 589.401367188 152.958984375 621.2890625 c 0
 185.16015625 653.155273438 223.5546875 677.724609375 268.111328125 694.9765625 c 0
 312.678710938 712.20703125 361.645507812 720.833007812 415.000976562 720.833007812 c 0
 461.848632812 720.833007812 505.26953125 712.541992188 545.275390625 695.94921875 c 0
 566.61328125 687.107421875 587.151367188 674.979492188 606.911132812 659.576171875 c 0
 635.037109375 637.643554688 634.075195312 594.665039062 605.322265625 573.543945312 c 2
EndSplineSet
Validated: 33
EndChar

StartChar: d
Encoding: 100 100 61
Width: 724
Flags: W
LayerCount: 2
Fore
SplineSet
50.0107421875 657.1328125 m 2
 50.0107421875 682.62109375 70.65625 703.27734375 96.14453125 703.27734375 c 2
 322.298828125 703.27734375 l 2
 367.828125 703.27734375 411.7578125 696.272460938 454.0546875 682.295898438 c 0
 496.330078125 668.297851562 533.741210938 646.9921875 566.288085938 618.369140625 c 0
 598.813476562 589.735351562 624.842773438 553.783203125 644.364257812 510.524414062 c 0
 663.885742188 467.243164062 673.646484375 416.341796875 673.646484375 357.787109375 c 0
 673.646484375 298.573242188 662.426757812 247.336914062 639.975585938 204.078125 c 0
 617.524414062 160.796875 588.56640625 125.028320312 553.122070312 96.71875 c 0
 517.645507812 68.419921875 478.288085938 47.265625 435.029296875 33.2890625 c 0
 391.759765625 19.291015625 349.30078125 12.30859375 307.663085938 12.30859375 c 2
 197.083007812 12.30859375 l 2
 181.982421875 12.30859375 167.84375 19.69140625 159.217773438 32.0791015625 c 2
 58.2900390625 176.990234375 l 2
 52.896484375 184.729492188 50.0107421875 193.928710938 50.0107421875 203.365234375 c 2
 50.0107421875 657.1328125 l 2
264.716796875 123.55859375 m 0
 303.08984375 123.55859375 339.37890625 127.946289062 373.536132812 136.734375 c 0
 407.693359375 145.522460938 437.451171875 159.185546875 462.83203125 177.723632812 c 0
 488.202148438 196.26171875 508.209960938 220.333984375 522.845703125 249.94140625 c 0
 537.481445312 279.537109375 544.810546875 315.478515625 544.810546875 357.786132812 c 0
 544.810546875 399.413085938 538.29296875 435.213867188 525.2890625 465.134765625 c 0
 512.263671875 495.055664062 494.211914062 519.30078125 471.123046875 537.849609375 c 0
 448.0234375 556.387695312 420.697265625 570.05078125 389.14453125 578.838867188 c 0
 357.581054688 587.626953125 322.936523438 592.015625 285.201171875 592.015625 c 2
 219.112304688 592.015625 l 2
 193.624023438 592.015625 172.966796875 571.358398438 172.966796875 545.870117188 c 2
 172.966796875 237.618164062 l 2
 172.966796875 228.462890625 175.690429688 219.501953125 180.803710938 211.903320312 c 2
 226.397460938 143.98828125 l 2
 234.969726562 131.22265625 249.334960938 123.55859375 264.716796875 123.55859375 c 0
EndSplineSet
Validated: 1
EndChar

StartChar: e
Encoding: 101 101 62
AltUni2: 0000eb.ffffffff.0
Width: 528
Flags: W
LayerCount: 2
Fore
SplineSet
50 339.098632812 m 2
 50 369.689453125 74.7412109375 394.515625 105.321289062 394.61328125 c 2
 421.723632812 395.737304688 l 2
 452.4765625 395.845703125 477.45703125 370.951171875 477.45703125 340.208984375 c 0
 477.45703125 309.54296875 452.595703125 284.681640625 421.9296875 284.681640625 c 2
 228.495117188 284.681640625 l 2
 197.829101562 284.681640625 172.967773438 259.8203125 172.967773438 229.154296875 c 2
 172.967773438 164.557617188 l 2
 172.967773438 133.891601562 197.829101562 109.030273438 228.495117188 109.030273438 c 2
 421.9296875 109.030273438 l 2
 452.595703125 109.030273438 477.45703125 84.1689453125 477.45703125 53.5029296875 c 2
 477.45703125 53.2978515625 l 2
 477.45703125 22.6318359375 452.595703125 -2.2294921875 421.9296875 -2.2294921875 c 2
 105.52734375 -2.2294921875 l 2
 74.861328125 -2.2294921875 50 22.6318359375 50 53.2978515625 c 2
 50 339.098632812 l 2
105.526367188 577.475585938 m 2
 74.8603515625 577.475585938 49.9990234375 602.336914062 49.9990234375 633.013671875 c 2
 49.9990234375 633.208007812 l 2
 49.9990234375 663.874023438 74.8603515625 688.735351562 105.526367188 688.735351562 c 2
 422.75 688.735351562 l 2
 453.416015625 688.735351562 478.27734375 663.874023438 478.27734375 633.208007812 c 2
 478.27734375 633.002929688 l 2
 478.27734375 602.336914062 453.416015625 577.475585938 422.75 577.475585938 c 2
 105.526367188 577.475585938 l 2
EndSplineSet
Validated: 33
EndChar

StartChar: f
Encoding: 102 102 63
Width: 528
Flags: W
LayerCount: 2
Fore
SplineSet
50 339.055664062 m 2
 50 369.678710938 74.755859375 394.54296875 105.357421875 394.68359375 c 2
 380.986328125 395.948242188 l 1
 421.82421875 395.948242188 l 2
 452.544921875 395.948242188 477.450195312 371.04296875 477.450195312 340.322265625 c 0
 477.450195312 309.6015625 452.544921875 284.696289062 421.82421875 284.696289062 c 2
 228.584960938 284.696289062 l 2
 197.864257812 284.696289062 172.958984375 259.791015625 172.958984375 229.0703125 c 2
 172.958984375 53.3955078125 l 2
 172.958984375 22.6748046875 148.053710938 -2.23046875 117.333007812 -2.23046875 c 2
 105.625976562 -2.23046875 l 2
 74.9052734375 -2.23046875 50 22.6748046875 50 53.3955078125 c 2
 50 339.055664062 l 2
105.637695312 577.481445312 m 2
 74.9169921875 577.481445312 50.0009765625 602.38671875 50.01171875 633.107421875 c 0
 50.01171875 663.828125 74.9169921875 688.733398438 105.637695312 688.733398438 c 2
 422.666992188 688.733398438 l 2
 453.387695312 688.733398438 478.29296875 663.828125 478.29296875 633.107421875 c 0
 478.29296875 602.38671875 453.387695312 577.481445312 422.666992188 577.481445312 c 2
 105.637695312 577.481445312 l 2
EndSplineSet
Validated: 33
EndChar

StartChar: g
Encoding: 103 103 64
Width: 751
Flags: W
LayerCount: 2
Fore
SplineSet
700.953125 83.1533203125 m 2
 700.953125 61.5126953125 688.5234375 41.5986328125 668.829101562 32.6484375 c 0
 591.953125 -2.3203125 507.358398438 -19.798828125 415.002929688 -19.798828125 c 0
 361.647460938 -19.798828125 312.69140625 -11.162109375 268.124023438 6.0576171875 c 0
 223.545898438 23.2880859375 185.172851562 47.6953125 152.9609375 79.2587890625 c 0
 120.759765625 110.811523438 95.5302734375 148.698242188 77.3271484375 192.952148438 c 0
 59.1025390625 237.1953125 50.0009765625 286.313476562 50.0009765625 340.317382812 c 0
 50.0009765625 395.618164062 59.1025390625 445.87109375 77.3271484375 491.108398438 c 0
 95.5302734375 536.32421875 120.759765625 574.870117188 152.9609375 606.7578125 c 0
 185.162109375 638.624023438 223.545898438 663.193359375 268.124023438 680.4453125 c 0
 312.69140625 697.67578125 361.647460938 706.301757812 415.002929688 706.301757812 c 0
 467.720703125 706.301757812 517.141601562 699.95703125 563.3515625 687.27734375 c 0
 586.2890625 680.975585938 608.026367188 672.219726562 628.564453125 661.021484375 c 0
 661.036132812 643.315429688 667.370117188 599.299804688 641.362304688 573.01171875 c 2
 631.190429688 562.732421875 l 2
 612.965820312 544.313476562 584.298828125 540.66015625 562.453125 554.59375 c 0
 548.314453125 563.608398438 532.834960938 571.240234375 516.015625 577.477539062 c 0
 484.452148438 589.184570312 451.116210938 595.04296875 415.985351562 595.04296875 c 0
 380.1953125 595.04296875 347.821289062 588.698242188 318.86328125 576.0078125 c 0
 289.916015625 563.317382812 265.021484375 545.751953125 244.213867188 523.311523438 c 0
 223.383789062 500.860351562 207.27734375 474.668945312 195.90625 444.748046875 c 0
 184.512695312 414.81640625 178.827148438 382.604492188 178.827148438 348.133789062 c 0
 178.827148438 311.046875 184.512695312 276.889648438 195.90625 245.661132812 c 0
 207.288085938 214.432617188 223.3828125 187.430664062 244.212890625 164.655273438 c 0
 265.032226562 141.869140625 289.915039062 123.979492188 318.862304688 110.975585938 c 0
 347.809570312 97.9501953125 380.194335938 91.4541015625 415.984375 91.4541015625 c 0
 447.202148438 91.4541015625 476.646484375 94.3837890625 504.296875 100.2421875 c 0
 516.9765625 102.922851562 529.0078125 106.294921875 540.37890625 110.348632812 c 0
 562.797851562 118.326171875 577.985351562 139.252929688 577.985351562 163.043945312 c 2
 577.985351562 234.926757812 l 2
 577.985351562 265.647460938 553.080078125 290.552734375 522.359375 290.552734375 c 2
 492.103515625 290.552734375 l 2
 461.3828125 290.552734375 436.477539062 315.458007812 436.477539062 346.178710938 c 0
 436.477539062 376.899414062 461.3828125 401.8046875 492.103515625 401.8046875 c 2
 645.327148438 401.8046875 l 2
 676.047851562 401.8046875 700.953125 376.899414062 700.953125 346.178710938 c 2
 700.953125 83.1533203125 l 2
EndSplineSet
Validated: 33
EndChar

StartChar: h
Encoding: 104 104 65
Width: 669
Flags: W
LayerCount: 2
Fore
SplineSet
50 627.255859375 m 2
 50 661.208007812 77.5205078125 688.739257812 111.483398438 688.739257812 c 0
 145.446289062 688.739257812 172.966796875 661.208007812 172.966796875 627.255859375 c 2
 172.966796875 475.016601562 l 2
 172.966796875 441.053710938 200.498046875 413.533203125 234.450195312 413.533203125 c 2
 434.510742188 413.533203125 l 2
 468.473632812 413.533203125 495.994140625 441.064453125 495.994140625 475.016601562 c 2
 495.994140625 627.255859375 l 2
 495.994140625 661.21875 523.525390625 688.739257812 557.477539062 688.739257812 c 0
 591.440429688 688.739257812 618.9609375 661.208007812 618.9609375 627.255859375 c 2
 618.9609375 59.25390625 l 2
 618.9609375 25.291015625 591.4296875 -2.2294921875 557.477539062 -2.2294921875 c 0
 523.514648438 -2.2294921875 495.994140625 25.3017578125 495.994140625 59.25390625 c 2
 495.994140625 240.776367188 l 2
 495.994140625 274.739257812 468.462890625 302.259765625 434.510742188 302.259765625 c 2
 234.450195312 302.259765625 l 2
 200.487304688 302.259765625 172.966796875 274.728515625 172.966796875 240.776367188 c 2
 172.966796875 59.25390625 l 2
 172.966796875 25.291015625 145.435546875 -2.2294921875 111.483398438 -2.2294921875 c 0
 77.5205078125 -2.2294921875 50 25.3017578125 50 59.25390625 c 2
 50 627.255859375 l 2
EndSplineSet
Validated: 1
EndChar

StartChar: i
Encoding: 105 105 66
AltUni2: 0000ef.ffffffff.0 0000ed.ffffffff.0 0000ec.ffffffff.0
Width: 223
Flags: W
LayerCount: 2
Fore
SplineSet
50 634.3359375 m 2
 50 668.298828125 77.53125 695.819335938 111.483398438 695.819335938 c 0
 145.435546875 695.819335938 172.966796875 668.288085938 172.966796875 634.3359375 c 2
 172.966796875 66.333984375 l 2
 172.966796875 32.3818359375 145.435546875 4.8505859375 111.483398438 4.8505859375 c 0
 77.53125 4.8505859375 50 32.3818359375 50 66.333984375 c 2
 50 634.3359375 l 2
EndSplineSet
Validated: 1
EndChar

StartChar: j
Encoding: 106 106 67
Width: 495
Flags: W
LayerCount: 2
Fore
SplineSet
180.361328125 640.194335938 m 0
 180.361328125 670.915039062 205.270507812 695.818359375 235.98046875 695.818359375 c 2
 389.204101562 695.818359375 l 2
 419.924804688 695.818359375 444.830078125 670.913085938 444.830078125 640.192382812 c 2
 444.830078125 196.142578125 l 2
 444.830078125 168.81640625 440.430664062 142.462890625 431.653320312 117.092773438 c 0
 422.875976562 91.7119140625 409.850585938 69.4228515625 392.620117188 50.236328125 c 0
 375.37890625 31.0498046875 353.73828125 15.7548828125 327.719726562 4.373046875 c 0
 301.701171875 -6.998046875 271.4453125 -12.705078125 236.962890625 -12.705078125 c 0
 182.299804688 -12.705078125 137.559570312 -0.0146484375 102.763671875 25.35546875 c 0
 83.7822265625 39.1806640625 68.3359375 57.458984375 56.423828125 80.1806640625 c 0
 39.5283203125 112.381835938 57.4609375 151.944335938 92.83984375 160.342773438 c 2
 101.865234375 162.483398438 l 2
 124.889648438 167.953125 149.588867188 158.700195312 161.5546875 138.28125 c 0
 165.770507812 131.092773438 170.89453125 124.682617188 176.936523438 119.040039062 c 0
 191.572265625 105.376953125 209.634765625 98.544921875 231.102539062 98.544921875 c 0
 266.233398438 98.544921875 290.143554688 110.4140625 302.833984375 134.172851562 c 0
 315.524414062 157.920898438 321.869140625 190.608398438 321.869140625 232.256835938 c 2
 321.869140625 528.942382812 l 2
 321.869140625 559.663085938 296.963867188 584.568359375 266.243164062 584.568359375 c 2
 235.987304688 584.568359375 l 2
 205.266601562 584.568359375 180.361328125 609.473632812 180.361328125 640.194335938 c 0
EndSplineSet
Validated: 33
EndChar

StartChar: k
Encoding: 107 107 68
Width: 628
Flags: W
LayerCount: 2
Fore
SplineSet
191.213867188 32.3818359375 m 2
 179.809570312 15.18359375 160.5703125 4.8505859375 139.946289062 4.8505859375 c 2
 111.485351562 4.8505859375 l 2
 77.533203125 4.8505859375 50.001953125 32.3818359375 50.001953125 66.333984375 c 2
 50.001953125 634.3359375 l 2
 50.001953125 668.288085938 77.533203125 695.819335938 111.485351562 695.819335938 c 0
 145.4375 695.819335938 172.96875 668.288085938 172.96875 634.3359375 c 2
 172.96875 211.255859375 l 1
 178.827148438 211.255859375 l 1
 446.932617188 665.5859375 l 2
 457.990234375 684.318359375 478.127929688 695.819335938 499.887695312 695.819335938 c 2
 516.19921875 695.819335938 l 2
 565.23046875 695.819335938 594.53515625 641.25390625 567.458007812 600.373046875 c 2
 399.393554688 346.698242188 l 2
 383.73046875 323.046875 386.270507812 291.75390625 405.5546875 270.946289062 c 2
 556.46484375 108.124023438 l 2
 592.935546875 68.7666015625 565.025390625 4.8505859375 511.3671875 4.8505859375 c 2
 507.086914062 4.8505859375 l 2
 489.5 4.8505859375 472.745117188 12.384765625 461.08203125 25.55078125 c 2
 357.1171875 142.84375 l 2
 330.3203125 173.077148438 282.153320312 169.693359375 259.842773438 136.01171875 c 2
 191.213867188 32.3818359375 l 2
EndSplineSet
Validated: 33
EndChar

StartChar: l
Encoding: 108 108 69
Width: 517
Flags: W
LayerCount: 2
Fore
SplineSet
50 640.194335938 m 2
 50.0107421875 670.915039062 74.9140625 695.822265625 105.634765625 695.822265625 c 2
 117.352539062 695.822265625 l 2
 148.073242188 695.822265625 172.978515625 670.916992188 172.978515625 640.196289062 c 2
 172.978515625 171.73828125 l 2
 172.978515625 141.017578125 197.883789062 116.112304688 228.604492188 116.112304688 c 2
 411.099609375 116.112304688 l 2
 441.8203125 116.112304688 466.725585938 91.20703125 466.725585938 60.486328125 c 0
 466.725585938 29.765625 441.8203125 4.8603515625 411.099609375 4.8603515625 c 2
 105.625976562 4.8603515625 l 2
 74.9052734375 4.8603515625 50 29.765625 50 60.486328125 c 2
 50 640.194335938 l 2
EndSplineSet
Validated: 1
EndChar

StartChar: m
Encoding: 109 109 70
Width: 844
Flags: W
LayerCount: 2
Fore
SplineSet
50 634.259765625 m 2
 50 666.201171875 75.8857421875 692.100585938 107.81640625 692.08984375 c 2
 735.821289062 692.08984375 l 2
 767.762695312 692.08984375 793.651367188 666.201171875 793.651367188 634.259765625 c 2
 793.651367188 58.951171875 l 2
 793.651367188 27.009765625 767.762695312 1.12109375 735.821289062 1.12109375 c 2
 734.373046875 1.12109375 l 2
 702.431640625 1.12109375 676.54296875 27.009765625 676.54296875 58.951171875 c 2
 676.54296875 574.981445312 l 1
 537.48046875 574.981445312 l 2
 505.5390625 574.981445312 479.650390625 549.092773438 479.650390625 517.151367188 c 2
 479.650390625 58.962890625 l 2
 479.650390625 27.021484375 453.76171875 1.1328125 421.8203125 1.1328125 c 0
 389.87890625 1.1328125 363.990234375 27.021484375 363.990234375 58.962890625 c 2
 363.990234375 517.151367188 l 2
 363.990234375 549.092773438 338.1015625 574.981445312 306.16015625 574.981445312 c 2
 167.108398438 574.981445312 l 1
 167.108398438 58.951171875 l 2
 167.108398438 27.009765625 141.219726562 1.12109375 109.278320312 1.12109375 c 2
 107.830078125 1.12109375 l 2
 75.888671875 1.12109375 50 27.009765625 50 58.951171875 c 2
 50 634.259765625 l 2
EndSplineSet
Validated: 33
EndChar

StartChar: n
Encoding: 110 110 71
AltUni2: 0000f1.ffffffff.0
Width: 723
Flags: W
LayerCount: 2
Fore
SplineSet
50 634.952148438 m 2
 50.0107421875 666.515625 75.5966796875 692.1015625 107.16015625 692.1015625 c 2
 615.515625 692.1015625 l 2
 647.079101562 692.1015625 672.665039062 666.515625 672.665039062 634.952148438 c 2
 672.665039062 58.28125 l 2
 672.665039062 26.7177734375 647.079101562 1.1318359375 615.515625 1.1318359375 c 2
 612.694335938 1.1318359375 l 2
 581.130859375 1.1318359375 555.544921875 26.7177734375 555.544921875 58.28125 c 2
 555.544921875 517.486328125 l 2
 555.544921875 548.99609375 530.045898438 574.560546875 498.536132812 574.635742188 c 2
 223.15625 575.327148438 l 2
 191.614257812 575.40234375 165.974609375 549.9140625 165.866210938 518.372070312 c 2
 164.298828125 58.0751953125 l 2
 164.190429688 26.587890625 138.63671875 1.12109375 107.149414062 1.12109375 c 0
 75.5859375 1.12109375 50 26.70703125 50 58.2705078125 c 2
 50 634.952148438 l 2
EndSplineSet
Validated: 33
EndChar

StartChar: o
Encoding: 111 111 72
AltUni2: 0000f8.ffffffff.0 0000f6.ffffffff.0 0000f5.ffffffff.0 0000f4.ffffffff.0 0000f3.ffffffff.0 0000f2.ffffffff.0
Width: 833
Flags: W
LayerCount: 2
Fore
SplineSet
77.326171875 196.306640625 m 0
 59.1015625 240.549804688 50 289.678710938 50 343.682617188 c 0
 50 398.97265625 59.1015625 449.236328125 77.326171875 494.462890625 c 0
 95.5400390625 539.678710938 120.758789062 578.224609375 152.959960938 610.112304688 c 0
 185.161132812 641.978515625 223.555664062 666.547851562 268.123046875 683.799804688 c 0
 312.690429688 701.030273438 361.657226562 709.65625 415.012695312 709.65625 c 0
 469.005859375 710.293945312 518.469726562 702.337890625 563.361328125 685.745117188 c 0
 608.252929688 669.15234375 646.9609375 644.907226562 679.497070312 613.030273438 c 0
 712.022460938 581.142578125 737.392578125 542.76953125 755.6171875 497.8671875 c 0
 773.8203125 452.975585938 782.943359375 402.86328125 782.943359375 347.573242188 c 0
 782.943359375 293.55859375 773.8203125 244.440429688 755.6171875 200.208007812 c 0
 737.392578125 155.954101562 712.022460938 117.89453125 679.497070312 86.0283203125 c 0
 646.950195312 54.140625 608.252929688 29.2470703125 563.361328125 11.357421875 c 0
 518.469726562 -6.5322265625 469.005859375 -15.7958984375 415.012695312 -16.455078125 c 0
 361.657226562 -16.455078125 312.690429688 -7.8291015625 268.123046875 9.412109375 c 0
 223.555664062 26.642578125 185.171875 51.0390625 152.959960938 82.6025390625 c 0
 120.758789062 114.155273438 95.5400390625 152.041992188 77.326171875 196.306640625 c 0
195.905273438 448.111328125 m 0
 184.5234375 418.1796875 178.828125 385.979492188 178.828125 351.497070312 c 0
 178.828125 314.41015625 184.524414062 280.251953125 195.90625 249.0234375 c 0
 207.288085938 217.794921875 223.3828125 190.79296875 244.212890625 168.017578125 c 0
 265.032226562 145.231445312 289.915039062 127.352539062 318.873046875 114.337890625 c 0
 347.8203125 101.3125 380.194335938 94.8271484375 415.984375 94.8271484375 c 0
 451.752929688 94.8271484375 484.299804688 101.3125 513.58203125 114.337890625 c 0
 542.853515625 127.352539062 567.8984375 145.2421875 588.728515625 168.017578125 c 0
 609.547851562 190.782226562 625.654296875 217.784179688 637.036132812 249.0234375 c 0
 648.41796875 280.251953125 654.114257812 314.409179688 654.114257812 351.49609375 c 0
 654.114257812 385.978515625 648.41796875 418.1796875 637.036132812 448.111328125 c 0
 625.654296875 478.032226562 609.547851562 504.234375 588.728515625 526.674804688 c 0
 567.8984375 549.125976562 542.853515625 566.69140625 513.58203125 579.37109375 c 0
 484.299804688 592.061523438 451.752929688 598.40625 415.984375 598.40625 c 0
 380.194335938 598.40625 347.8203125 592.061523438 318.873046875 579.37109375 c 0
 289.915039062 566.680664062 265.032226562 549.115234375 244.212890625 526.674804688 c 0
 223.3828125 504.223632812 207.276367188 478.032226562 195.905273438 448.111328125 c 0
EndSplineSet
Validated: 33
EndChar

StartChar: p
Encoding: 112 112 73
Width: 590
Flags: W
LayerCount: 2
Fore
SplineSet
264.98828125 410.883789062 m 2
 388.994140625 410.89453125 411.533203125 478.299804688 411.65234375 507.268554688 c 0
 411.65234375 507.506835938 411.65234375 507.733398438 411.65234375 507.971679688 c 0
 411.65234375 529.439453125 407.090820312 546.518554688 397.989257812 559.208984375 c 0
 388.866210938 571.899414062 377.159179688 581.66015625 362.858398438 588.4921875 c 0
 348.546875 595.32421875 332.602539062 599.712890625 315.037109375 601.658203125 c 0
 297.471679688 603.614257812 280.543945312 604.586914062 264.286132812 604.586914062 c 2
 82.3203125 604.586914062 l 2
 64.4736328125 604.586914062 50 619.049804688 50 636.896484375 c 2
 50 677.669921875 l 2
 50 695.516601562 64.4736328125 709.979492188 82.3203125 709.979492188 c 2
 285.752929688 709.979492188 l 2
 318.9375 709.979492188 350.965820312 706.71484375 381.880859375 700.21875 c 0
 412.774414062 693.711914062 439.94921875 682.805664062 463.373046875 667.532226562 c 0
 486.796875 652.237304688 505.486328125 631.743164062 519.484375 606.048828125 c 0
 533.471679688 580.34375 540.465820312 548.293945312 540.465820312 509.91015625 c 0
 540.465820312 466.315429688 532.974609375 431.184570312 518.025390625 404.506835938 c 0
 503.0546875 377.818359375 482.895507812 357.172851562 457.514648438 342.537109375 c 0
 436.609375 330.473632812 412.947265625 321.62109375 386.529296875 315.95703125 c 0
 380.875976562 314.74609375 375.092773438 313.686523438 369.190429688 312.767578125 c 0
 363.526367188 311.891601562 357.819335938 311.081054688 352.079101562 310.345703125 c 0
 323.8125 306.74609375 294.551757812 304.952148438 264.274414062 304.952148438 c 2
 237.920898438 304.952148438 l 2
 203.96875 304.952148438 176.4375 277.420898438 176.4375 243.46875 c 2
 176.4375 80.484375 l 2
 176.4375 46.5322265625 148.90625 19.0009765625 114.954101562 19.0009765625 c 0
 81.001953125 19.0009765625 53.470703125 46.5322265625 53.470703125 80.484375 c 2
 53.470703125 382.012695312 l 2
 53.470703125 398.215820312 66.6904296875 411.31640625 82.8935546875 411.17578125 c 2
 264.98828125 410.883789062 l 2
EndSplineSet
Validated: 33
EndChar

StartChar: q
Encoding: 113 113 74
Width: 833
Flags: W
LayerCount: 2
Fore
SplineSet
755.616210938 524.75 m 0
 773.819335938 479.858398438 782.94140625 429.7578125 782.952148438 374.467773438 c 0
 782.952148438 320.463867188 773.829101562 271.334960938 755.625976562 227.102539062 c 0
 737.401367188 182.859375 712.03125 144.7890625 679.505859375 112.922851562 c 0
 646.969726562 81.03515625 608.26171875 56.1416015625 563.370117188 38.251953125 c 0
 537.837890625 28.0908203125 510.803710938 20.7724609375 482.321289062 16.189453125 c 0
 473.684570312 14.8056640625 467.231445312 7.552734375 467.231445312 -1.1923828125 c 2
 467.231445312 -13.7314453125 l 2
 467.231445312 -23.44921875 459.3515625 -31.3291015625 449.633789062 -31.3291015625 c 2
 383.318359375 -31.3291015625 l 2
 373.600585938 -31.3291015625 365.720703125 -23.44921875 365.720703125 -13.7314453125 c 2
 365.720703125 -2.349609375 l 2
 365.720703125 6.5029296875 359.116210938 13.810546875 350.349609375 15.0751953125 c 0
 321.456054688 19.248046875 294.021484375 26.28515625 268.122070312 36.3056640625 c 0
 223.5546875 53.525390625 185.16015625 77.9326171875 152.958984375 109.49609375 c 0
 120.7578125 141.048828125 95.5390625 178.935546875 77.3251953125 223.200195312 c 0
 59.1005859375 267.432617188 49.9990234375 316.55078125 49.9990234375 370.565429688 c 0
 49.9990234375 425.85546875 59.1005859375 476.108398438 77.3251953125 521.345703125 c 0
 95.5390625 566.561523438 120.7578125 605.107421875 152.958984375 636.995117188 c 0
 185.170898438 668.872070312 223.5546875 693.430664062 268.122070312 710.682617188 c 0
 312.689453125 727.90234375 361.65625 736.5390625 415.01171875 736.5390625 c 0
 469.004882812 737.176757812 518.46875 729.220703125 563.360351562 712.627929688 c 0
 608.251953125 696.03515625 646.94921875 671.790039062 679.49609375 639.913085938 c 0
 712.021484375 608.025390625 737.391601562 569.641601562 755.616210938 524.75 c 0
637.036132812 275.885742188 m 0
 648.407226562 307.114257812 654.11328125 341.283203125 654.102539062 378.359375 c 0
 654.102539062 412.841796875 648.40625 445.04296875 637.024414062 474.974609375 c 0
 625.642578125 504.89453125 609.536132812 531.0859375 588.716796875 553.537109375 c 0
 567.88671875 575.977539062 542.841796875 593.54296875 513.5703125 606.233398438 c 0
 484.288085938 618.923828125 451.741210938 625.268554688 415.97265625 625.268554688 c 0
 380.182617188 625.268554688 347.80859375 618.923828125 318.861328125 606.233398438 c 0
 289.903320312 593.553710938 265.020507812 575.98828125 244.201171875 553.537109375 c 0
 223.37109375 531.096679688 207.276367188 504.89453125 195.89453125 474.973632812 c 0
 184.512695312 445.041992188 178.81640625 412.840820312 178.81640625 378.358398438 c 0
 178.81640625 341.271484375 184.512695312 307.114257812 195.89453125 275.885742188 c 0
 207.265625 244.646484375 223.372070312 217.64453125 244.202148438 194.879882812 c 0
 265.021484375 172.104492188 289.915039062 154.21484375 318.862304688 141.200195312 c 0
 326.7421875 137.654296875 334.881835938 134.595703125 343.280273438 132.0234375 c 0
 354.446289062 128.596679688 365.709960938 137.297851562 365.709960938 148.982421875 c 2
 365.709960938 149.1875 l 2
 365.709960938 158.905273438 373.58984375 166.78515625 383.307617188 166.78515625 c 2
 449.623046875 166.78515625 l 2
 459.340820312 166.78515625 467.220703125 158.905273438 467.220703125 149.1875 c 0
 467.220703125 137.502929688 478.495117188 128.791015625 489.661132812 132.239257812 c 0
 497.865234375 134.768554688 505.83203125 137.751953125 513.58203125 141.200195312 c 0
 542.853515625 154.21484375 567.8984375 172.09375 588.728515625 194.879882812 c 0
 609.547851562 217.655273438 625.654296875 244.657226562 637.036132812 275.885742188 c 0
EndSplineSet
Validated: 33
EndChar

StartChar: r
Encoding: 114 114 75
Width: 620
Flags: W
LayerCount: 2
Fore
SplineSet
564.329101562 61.7724609375 m 2
 575.678710938 42.3154296875 561.646484375 17.8759765625 539.130859375 17.8759765625 c 2
 452.850585938 17.8759765625 l 2
 442.430664062 17.8759765625 432.810546875 23.431640625 427.600585938 32.4462890625 c 2
 278.528320312 290.390625 l 2
 273.318359375 299.405273438 263.6875 304.9609375 253.278320312 304.9609375 c 2
 234.827148438 304.9609375 l 2
 218.720703125 304.9609375 205.663085938 291.903320312 205.663085938 275.786132812 c 2
 205.663085938 48.1728515625 l 2
 205.663085938 32.06640625 192.60546875 18.998046875 176.48828125 18.998046875 c 2
 111.859375 18.998046875 l 2
 95.7529296875 18.998046875 82.6845703125 32.0556640625 82.6845703125 48.1728515625 c 2
 82.6845703125 382.010742188 l 2
 82.6845703125 398.213867188 95.904296875 411.314453125 112.107421875 411.173828125 c 2
 153.928710938 410.817382812 l 2
 176.650390625 410.623046875 190.864257812 435.322265625 179.276367188 454.865234375 c 2
 54.125 665.940429688 l 2
 42.591796875 685.38671875 56.611328125 709.989257812 79.2138671875 709.989257812 c 2
 314.966796875 709.989257812 l 2
 348.151367188 709.989257812 380.1796875 706.724609375 411.094726562 700.228515625 c 0
 441.98828125 693.721679688 469.163085938 682.815429688 492.586914062 667.541992188 c 0
 516.010742188 652.247070312 534.700195312 631.752929688 548.698242188 606.05859375 c 0
 562.685546875 580.353515625 569.6796875 548.303710938 569.6796875 509.919921875 c 0
 569.6796875 466.325195312 562.188476562 431.194335938 547.239257812 404.516601562 c 0
 532.268554688 377.828125 512.109375 357.182617188 486.728515625 342.546875 c 0
 475.421875 336.029296875 463.315429688 330.440429688 450.3984375 325.791992188 c 0
 433.08203125 319.565429688 425.407226562 299.427734375 434.692382812 283.548828125 c 2
 564.329101562 61.7724609375 l 2
268.473632812 560.368164062 m 2
 344.724609375 433.823242188 l 2
 351.9453125 421.8359375 366.635742188 416.77734375 379.823242188 421.436523438 c 0
 382.13671875 422.2578125 384.41796875 423.122070312 386.676757812 424.041015625 c 0
 402.609375 430.537109375 415.61328125 440.297851562 425.708984375 453.323242188 c 0
 435.783203125 466.327148438 440.831054688 484.551757812 440.831054688 507.975585938 c 0
 440.831054688 529.443359375 436.26953125 546.522460938 427.16796875 559.212890625 c 0
 418.044921875 571.903320312 406.337890625 581.6640625 392.037109375 588.49609375 c 0
 377.725585938 595.327148438 361.78125 599.715820312 344.215820312 601.661132812 c 0
 326.650390625 603.6171875 309.72265625 604.58984375 293.46484375 604.58984375 c 0
 270.764648438 604.58984375 256.766601562 579.814453125 268.473632812 560.368164062 c 2
EndSplineSet
Validated: 33
EndChar

StartChar: s
Encoding: 115 115 76
AltUni2: 0000df.ffffffff.0
Width: 557
Flags: W
LayerCount: 2
Fore
SplineSet
455.4609375 606.393554688 m 2
 451.990234375 602.692382812 l 2
 432.760742188 582.4140625 402.364257812 579.884765625 378.443359375 594.358398438 c 0
 372.930664062 597.6875 367.072265625 600.6171875 360.845703125 603.125 c 0
 339.032226562 611.913085938 316.10546875 616.291015625 292.033203125 616.291015625 c 0
 277.7109375 616.291015625 263.885742188 614.669921875 250.557617188 611.416015625 c 0
 237.208007812 608.151367188 225.176757812 602.952148438 214.443359375 595.807617188 c 0
 203.709960938 588.629882812 195.073242188 579.366210938 188.577148438 567.984375 c 0
 182.0703125 556.602539062 178.827148438 543.1015625 178.827148438 527.493164062 c 0
 178.827148438 504.069335938 186.956054688 486.168945312 203.224609375 473.813476562 c 0
 219.482421875 461.447265625 239.65234375 450.713867188 263.735351562 441.612304688 c 0
 287.796875 432.489257812 314.150390625 423.711914062 342.784179688 415.258789062 c 0
 371.407226562 406.794921875 397.760742188 395.077148438 421.833007812 380.127929688 c 0
 445.89453125 365.146484375 466.064453125 345.311523438 482.34375 320.6015625 c 0
 498.58984375 295.858398438 506.740234375 263.01953125 506.740234375 222.030273438 c 0
 506.740234375 184.943359375 499.908203125 152.569335938 486.245117188 124.9296875 c 0
 472.58203125 97.2685546875 454.184570312 74.3310546875 431.095703125 56.1171875 c 0
 407.99609375 37.892578125 381.15625 24.2294921875 350.576171875 15.1279296875 c 0
 319.985351562 6.0263671875 287.784179688 1.46484375 253.961914062 1.46484375 c 0
 211.02734375 1.46484375 169.703125 8.6318359375 130.021484375 22.9326171875 c 0
 112.110351562 29.3857421875 95.3232421875 37.8388671875 79.66015625 48.26953125 c 0
 48.9072265625 68.763671875 46.0751953125 113.092773438 72.623046875 138.80859375 c 2
 77.4443359375 143.478515625 l 2
 98.5009765625 163.875976562 131.361328125 165.713867188 154.4609375 147.662109375 c 0
 162.114257812 141.684570312 170.39453125 136.376953125 179.301757812 131.750976562 c 0
 203.698242188 119.060546875 229.565429688 112.7265625 256.891601562 112.7265625 c 0
 271.192382812 112.7265625 285.514648438 114.671875 299.826171875 118.57421875 c 0
 314.126953125 122.487304688 327.15234375 128.334960938 338.870117188 136.150390625 c 0
 350.577148438 143.955078125 360.002929688 153.8671875 367.180664062 165.919921875 c 0
 374.325195312 177.951171875 377.9140625 191.776367188 377.9140625 207.395507812 c 0
 377.9140625 232.776367188 369.774414062 252.287109375 353.516601562 265.950195312 c 0
 337.237304688 279.61328125 317.067382812 291.157226562 293.005859375 300.59375 c 0
 268.922851562 310.01953125 242.580078125 318.969726562 213.95703125 327.43359375 c 0
 185.3125 335.875976562 158.969726562 347.442382812 134.908203125 362.078125 c 0
 110.825195312 376.713867188 90.6552734375 396.235351562 74.3974609375 420.631835938 c 0
 58.12890625 445.028320312 50 477.7265625 50 518.7265625 c 0
 50 554.495117188 57.3076171875 585.41015625 71.9541015625 611.439453125 c 0
 86.58984375 637.458007812 105.776367188 659.098632812 129.53515625 676.350585938 c 0
 153.283203125 693.581054688 180.436523438 706.43359375 211.02734375 714.897460938 c 0
 241.596679688 723.33984375 272.825195312 727.587890625 304.712890625 727.587890625 c 0
 341.140625 727.587890625 376.444335938 722.053710938 410.61328125 710.99609375 c 0
 420.158203125 707.904296875 429.443359375 704.250976562 438.447265625 700.03515625 c 0
 474.572265625 683.162109375 482.895507812 635.319335938 455.4609375 606.393554688 c 2
EndSplineSet
Validated: 33
EndChar

StartChar: t
Encoding: 116 116 77
Width: 647
Flags: W
LayerCount: 2
Fore
SplineSet
261.799804688 543.104492188 m 2
 261.778320312 573.825195312 236.876953125 598.73046875 206.145507812 598.73046875 c 2
 105.62890625 598.73046875 l 2
 74.908203125 598.73046875 50.0029296875 623.635742188 50.0029296875 654.356445312 c 0
 50.0029296875 685.077148438 74.908203125 709.982421875 105.62890625 709.982421875 c 2
 540.901367188 709.982421875 l 2
 571.622070312 709.982421875 596.52734375 685.077148438 596.52734375 654.356445312 c 0
 596.52734375 623.635742188 571.622070312 598.73046875 540.901367188 598.73046875 c 2
 440.384765625 598.73046875 l 2
 409.6640625 598.73046875 384.758789062 573.825195312 384.758789062 543.104492188 c 2
 384.758789062 74.646484375 l 2
 384.758789062 43.92578125 359.853515625 19.0205078125 329.1328125 19.0205078125 c 2
 317.42578125 19.0205078125 l 2
 286.705078125 19.0205078125 261.799804688 43.92578125 261.799804688 74.646484375 c 2
 261.799804688 543.104492188 l 2
EndSplineSet
Validated: 1
EndChar

StartChar: u
Encoding: 117 117 78
AltUni2: 0000fc.ffffffff.0 0000fb.ffffffff.0 0000fa.ffffffff.0
Width: 723
Flags: W
LayerCount: 2
Fore
SplineSet
672.654296875 50.8232421875 m 2
 672.643554688 19.259765625 647.057617188 -6.326171875 615.504882812 -6.326171875 c 2
 107.149414062 -6.326171875 l 2
 75.5859375 -6.326171875 50 19.259765625 50 50.8232421875 c 2
 50 627.494140625 l 2
 50 659.057617188 75.5859375 684.643554688 107.149414062 684.643554688 c 2
 109.959960938 684.643554688 l 2
 141.5234375 684.643554688 167.109375 659.057617188 167.109375 627.494140625 c 2
 167.109375 168.278320312 l 2
 167.109375 136.768554688 192.608398438 111.204101562 224.118164062 111.12890625 c 2
 499.498046875 110.4375 l 2
 531.040039062 110.362304688 556.690429688 135.850585938 556.788085938 167.392578125 c 2
 558.35546875 627.689453125 l 2
 558.463867188 659.176757812 584.017578125 684.643554688 615.504882812 684.643554688 c 0
 647.068359375 684.643554688 672.654296875 659.057617188 672.654296875 627.494140625 c 2
 672.654296875 50.8232421875 l 2
EndSplineSet
Validated: 33
EndChar

StartChar: v
Encoding: 118 118 79
Width: 699
Flags: W
LayerCount: 2
Fore
SplineSet
54.2783203125 601.41015625 m 2
 38.572265625 641.39453125 68.0478515625 684.641601562 111.015625 684.641601562 c 2
 120.30078125 684.641601562 l 2
 145.995117188 684.641601562 168.921875 668.53515625 177.645507812 644.365234375 c 2
 295.013671875 319.012695312 l 2
 314.276367188 265.603515625 389.693359375 265.225585938 409.485351562 318.451171875 c 2
 530.928710938 644.927734375 l 2
 539.803710938 668.794921875 562.58984375 684.630859375 588.056640625 684.630859375 c 0
 631.272460938 684.630859375 660.760742188 640.907226562 644.579101562 600.84765625 c 2
 414.684570312 31.7978515625 l 2
 405.377929688 8.751953125 383.013671875 -6.3271484375 358.163085938 -6.3271484375 c 2
 334.458007812 -6.3271484375 l 2
 309.390625 -6.3271484375 286.885742188 9.0224609375 277.719726562 32.349609375 c 2
 54.2783203125 601.41015625 l 2
EndSplineSet
Validated: 33
EndChar

StartChar: w
Encoding: 119 119 80
Width: 844
Flags: W
LayerCount: 2
Fore
SplineSet
734.375976562 684.642578125 m 2
 735.837890625 684.642578125 l 2
 767.768554688 684.642578125 793.66796875 658.75390625 793.66796875 626.8125 c 2
 793.66796875 51.50390625 l 2
 793.66796875 19.5625 767.779296875 -6.326171875 735.837890625 -6.326171875 c 2
 107.833007812 -6.326171875 l 2
 75.8916015625 -6.326171875 50.0029296875 19.5625 50.0029296875 51.50390625 c 2
 50.0029296875 626.8125 l 2
 50.0029296875 658.75390625 75.8916015625 684.642578125 107.833007812 684.642578125 c 2
 109.28125 684.642578125 l 2
 141.22265625 684.642578125 167.111328125 658.75390625 167.111328125 626.8125 c 2
 167.111328125 110.79296875 l 1
 306.173828125 110.79296875 l 2
 338.115234375 110.79296875 364.00390625 136.681640625 364.00390625 168.623046875 c 2
 364.00390625 626.811523438 l 2
 364.00390625 658.752929688 389.892578125 684.641601562 421.833984375 684.641601562 c 0
 453.775390625 684.641601562 479.6640625 658.752929688 479.6640625 626.811523438 c 2
 479.6640625 168.612304688 l 2
 479.6640625 136.670898438 505.552734375 110.782226562 537.494140625 110.782226562 c 2
 676.545898438 110.782226562 l 1
 676.545898438 626.8125 l 2
 676.545898438 658.75390625 702.434570312 684.642578125 734.375976562 684.642578125 c 2
EndSplineSet
Validated: 1
EndChar

StartChar: x
Encoding: 120 120 81
Width: 659
Flags: W
LayerCount: 2
Fore
SplineSet
218.482421875 320.236328125 m 2
 232.642578125 341.022460938 232.4921875 368.413085938 218.083007812 389.05859375 c 2
 78.2744140625 589.302734375 l 2
 50.212890625 629.4921875 78.9658203125 684.65234375 127.986328125 684.65234375 c 2
 133.618164062 684.65234375 l 2
 154.329101562 684.65234375 173.61328125 674.081054688 184.747070312 656.61328125 c 2
 278.420898438 509.6484375 l 2
 302.331054688 472.139648438 357.15625 472.291015625 380.861328125 509.9296875 c 2
 473.065429688 656.33203125 l 2
 484.166992188 673.961914062 503.537109375 684.65234375 524.3671875 684.65234375 c 2
 525.047851562 684.65234375 l 2
 573.852539062 684.65234375 602.659179688 629.935546875 575.041015625 589.703125 c 2
 437.48046875 389.296875 l 2
 423.22265625 368.521484375 423.297851562 341.086914062 437.674804688 320.397460938 c 2
 598.475585938 88.9033203125 l 2
 626.396484375 48.6923828125 597.6328125 -6.31640625 548.676757812 -6.31640625 c 2
 542.061523438 -6.31640625 l 2
 521.166992188 -6.31640625 501.7421875 4.4501953125 490.651367188 22.1669921875 c 2
 377.499023438 203.083984375 l 2
 353.71875 241.111328125 298.298828125 241.046875 274.604492188 202.954101562 c 2
 162.21875 22.2861328125 l 2
 151.150390625 4.494140625 131.682617188 -6.3154296875 110.734375 -6.3154296875 c 0
 62.0380859375 -6.3154296875 33.208984375 48.1962890625 60.6220703125 88.4501953125 c 2
 218.482421875 320.236328125 l 2
EndSplineSet
Validated: 33
EndChar

StartChar: y
Encoding: 121 121 82
AltUni2: 0000ff.ffffffff.0 0000fd.ffffffff.0
Width: 639
Flags: W
LayerCount: 2
Fore
SplineSet
257.8203125 289.10546875 m 2
 257.841796875 300.963867188 254.37109375 312.5625 247.852539062 322.474609375 c 2
 60.08203125 608.361328125 l 2
 33.5234375 648.788085938 62.525390625 702.532226562 110.897460938 702.532226562 c 2
 118.506835938 702.532226562 l 2
 139.595703125 702.532226562 159.171875 691.603515625 170.251953125 673.66015625 c 2
 270.80078125 510.697265625 l 2
 294.484375 472.313476562 350.239257812 472.172851562 374.1171875 510.427734375 c 2
 476.158203125 673.930664062 l 2
 487.270507812 691.72265625 506.759765625 702.54296875 527.73046875 702.54296875 c 0
 576.102539062 702.54296875 605.104492188 648.798828125 578.545898438 608.372070312 c 2
 390.775390625 322.485351562 l 2
 384.2578125 312.573242188 380.798828125 300.974609375 380.798828125 289.10546875 c 2
 380.798828125 72.3662109375 l 2
 380.798828125 38.7919921875 353.581054688 11.57421875 319.99609375 11.57421875 c 2
 318.623046875 11.57421875 l 2
 285.048828125 11.57421875 257.8203125 38.7919921875 257.8203125 72.3662109375 c 2
 257.8203125 289.10546875 l 2
EndSplineSet
Validated: 33
EndChar

StartChar: z
Encoding: 122 122 83
Width: 628
Flags: W
LayerCount: 2
Fore
SplineSet
50 103.540039062 m 2
 49.9892578125 116.036132812 54.185546875 128.166015625 61.9140625 137.969726562 c 2
 347.984375 501.23046875 l 2
 376.715820312 537.72265625 350.73046875 591.272460938 304.282226562 591.272460938 c 2
 111.474609375 591.272460938 l 2
 80.75390625 591.272460938 55.8486328125 616.177734375 55.8486328125 646.8984375 c 0
 55.8486328125 677.619140625 80.75390625 702.524414062 111.474609375 702.524414062 c 2
 516.4921875 702.524414062 l 2
 547.212890625 702.524414062 572.118164062 677.619140625 572.118164062 646.8984375 c 2
 572.118164062 610.665039062 l 2
 572.118164062 598.104492188 567.870117188 585.911132812 560.065429688 576.07421875 c 2
 271.897460938 213.029296875 l 2
 242.9609375 176.569335938 268.924804688 122.814453125 315.469726562 122.814453125 c 2
 522.350585938 122.814453125 l 2
 553.08203125 122.814453125 577.975585938 97.9091796875 577.975585938 67.1884765625 c 0
 577.975585938 36.4677734375 553.0703125 11.5625 522.349609375 11.5625 c 2
 105.625976562 11.5625 l 2
 74.89453125 11.5625 50 36.4677734375 50 67.1884765625 c 2
 50 103.540039062 l 2
EndSplineSet
Validated: 33
EndChar

StartChar: agrave
Encoding: 224 224 85
Width: 741
Flags: W
LayerCount: 2
Fore
SplineSet
685.716796875 97.6337890625 m 2
 703.282226562 57.2392578125 673.684570312 12.087890625 629.658203125 12.0771484375 c 2
 626.934570312 12.0771484375 l 2
 601.82421875 12.0771484375 579.275390625 27.416015625 570.0546875 50.7646484375 c 0
 544.263671875 116.064453125 469.495117188 147.000976562 405.103515625 119.037109375 c 2
 170.49609375 17.1474609375 l 2
 162.799804688 13.8076171875 154.508789062 12.0888671875 146.131835938 12.0888671875 c 2
 111.228515625 12.0888671875 l 2
 67.27734375 12.0888671875 37.6708984375 57.0771484375 55.0634765625 97.439453125 c 2
 300.037109375 666.111328125 l 2
 309.701171875 688.541015625 331.78515625 703.068359375 356.203125 703.068359375 c 2
 382.25390625 703.068359375 l 2
 406.596679688 703.068359375 428.625976562 688.626953125 438.333007812 666.305664062 c 2
 685.716796875 97.6337890625 l 2
427.229492188 252.174804688 m 2
 457.236328125 265.275390625 471.61328125 299.668945312 459.831054688 330.205078125 c 2
 430.137695312 407.254882812 l 2
 409.9453125 459.637695312 335.75 459.411132812 315.881835938 406.91015625 c 2
 275.076171875 299.108398438 l 2
 255.921875 248.48828125 307.125976562 199.770507812 356.73046875 221.411132812 c 2
 427.229492188 252.174804688 l 2
258.01953125 815.915039062 m 2
 226.067382812 823.438476562 206.25390625 855.446289062 213.766601562 887.3984375 c 0
 221.30078125 919.362304688 253.307617188 939.1328125 285.259765625 931.65234375 c 2
 469.01953125 888.415039062 l 2
 500.971679688 880.90234375 520.78515625 848.895507812 513.272460938 816.931640625 c 0
 506.830078125 789.551757812 482.412109375 771.088867188 455.453125 771.088867188 c 0
 450.934570312 771.088867188 446.362304688 771.596679688 441.779296875 772.677734375 c 2
 258.01953125 815.915039062 l 2
EndSplineSet
Validated: 33
EndChar

StartChar: acircumflex
Encoding: 226 226 86
Width: 741
Flags: W
LayerCount: 2
Fore
SplineSet
685.709960938 83.880859375 m 2
 703.286132812 43.486328125 673.678710938 -1.6650390625 629.65234375 -1.6865234375 c 2
 626.928710938 -1.6865234375 l 2
 601.829101562 -1.6865234375 579.26953125 13.65234375 570.048828125 37.0009765625 c 0
 544.2578125 102.30078125 469.489257812 133.237304688 405.09765625 105.2734375 c 2
 170.490234375 3.3837890625 l 2
 162.793945312 0.0439453125 154.502929688 -1.6748046875 146.125976562 -1.6748046875 c 2
 111.22265625 -1.6748046875 l 2
 67.271484375 -1.6748046875 37.6640625 43.3134765625 55.056640625 83.67578125 c 2
 300.030273438 652.34765625 l 2
 309.694335938 674.77734375 331.778320312 689.3046875 356.196289062 689.3046875 c 2
 382.247070312 689.3046875 l 2
 406.58984375 689.3046875 428.619140625 674.86328125 438.326171875 652.541992188 c 2
 685.709960938 83.880859375 l 2
427.235351562 238.421875 m 2
 457.2421875 251.522460938 471.608398438 285.916015625 459.836914062 316.452148438 c 2
 430.143554688 393.501953125 l 2
 409.951171875 445.884765625 335.755859375 445.658203125 315.887695312 393.157226562 c 2
 275.08203125 285.35546875 l 2
 255.927734375 234.735351562 307.131835938 186.017578125 356.736328125 207.658203125 c 2
 427.235351562 238.421875 l 2
229.013671875 759.357421875 m 2
 197.27734375 750.904296875 164.708984375 769.75390625 156.266601562 801.479492188 c 0
 147.802734375 833.194335938 166.665039062 865.7734375 198.390625 874.237304688 c 2
 360.53125 917.474609375 l 2
 370.918945312 920.2421875 381.84765625 920.14453125 392.181640625 917.193359375 c 2
 543.513671875 873.956054688 l 2
 575.087890625 864.94140625 593.366210938 832.038085938 584.3515625 800.463867188 c 0
 576.881835938 774.348632812 553.079101562 757.334960938 527.211914062 757.334960938 c 0
 521.796875 757.334960938 516.305664062 758.0703125 510.846679688 759.637695312 c 2
 375.296875 798.357421875 l 1
 229.013671875 759.357421875 l 2
EndSplineSet
Validated: 33
EndChar

StartChar: egrave
Encoding: 232 232 87
Width: 528
Flags: W
LayerCount: 2
Fore
SplineSet
422.76171875 710.1484375 m 2
 453.438476562 710.1484375 478.299804688 685.287109375 478.2890625 654.62109375 c 2
 478.2890625 654.426757812 l 2
 478.2890625 623.760742188 453.427734375 598.899414062 422.76171875 598.899414062 c 2
 105.538085938 598.899414062 l 2
 74.8720703125 598.899414062 50.0107421875 623.760742188 50.0107421875 654.426757812 c 2
 50.0107421875 654.62109375 l 2
 50.0107421875 685.287109375 74.8720703125 710.1484375 105.538085938 710.1484375 c 2
 422.76171875 710.1484375 l 2
228.505859375 306.092773438 m 2
 197.83984375 306.092773438 172.9765625 281.227539062 172.965820312 250.55078125 c 2
 172.965820312 185.954101562 l 2
 172.965820312 155.288085938 197.827148438 130.426757812 228.493164062 130.426757812 c 2
 421.927734375 130.426757812 l 2
 452.59375 130.426757812 477.455078125 105.565429688 477.455078125 74.8994140625 c 2
 477.455078125 74.6943359375 l 2
 477.455078125 44.0283203125 452.59375 19.1669921875 421.927734375 19.1669921875 c 2
 105.525390625 19.1669921875 l 2
 74.859375 19.1669921875 49.998046875 44.0283203125 49.998046875 74.6943359375 c 2
 49.998046875 360.495117188 l 2
 49.998046875 391.0859375 74.7412109375 415.915039062 105.33203125 416.0234375 c 2
 421.734375 417.147460938 l 2
 452.487304688 417.255859375 477.467773438 392.362304688 477.467773438 361.620117188 c 0
 477.467773438 330.954101562 452.606445312 306.092773438 421.940429688 306.092773438 c 2
 228.505859375 306.092773438 l 2
209.100585938 815.9140625 m 2
 177.1484375 823.4375 157.334960938 855.4453125 164.84765625 887.397460938 c 0
 172.381835938 919.361328125 204.41015625 939.131835938 236.340820312 931.651367188 c 2
 420.100585938 888.4140625 l 2
 452.052734375 880.901367188 471.866210938 848.89453125 464.353515625 816.930664062 c 0
 457.911132812 789.55078125 433.493164062 771.087890625 406.534179688 771.087890625 c 0
 402.015625 771.087890625 397.443359375 771.595703125 392.860351562 772.676757812 c 2
 209.100585938 815.9140625 l 2
EndSplineSet
Validated: 33
EndChar

StartChar: eacute
Encoding: 233 233 88
Width: 528
Flags: W
LayerCount: 2
Fore
SplineSet
422.76171875 710.1484375 m 2
 453.438476562 710.1484375 478.299804688 685.287109375 478.2890625 654.62109375 c 2
 478.2890625 654.426757812 l 2
 478.2890625 623.760742188 453.427734375 598.899414062 422.76171875 598.899414062 c 2
 105.538085938 598.899414062 l 2
 74.8720703125 598.899414062 50.0107421875 623.760742188 50.0107421875 654.426757812 c 2
 50.0107421875 654.62109375 l 2
 50.0107421875 685.287109375 74.8720703125 710.1484375 105.538085938 710.1484375 c 2
 422.76171875 710.1484375 l 2
228.505859375 306.092773438 m 2
 197.83984375 306.092773438 172.9765625 281.227539062 172.965820312 250.55078125 c 2
 172.965820312 185.954101562 l 2
 172.965820312 155.288085938 197.827148438 130.426757812 228.493164062 130.426757812 c 2
 421.927734375 130.426757812 l 2
 452.59375 130.426757812 477.455078125 105.565429688 477.455078125 74.8994140625 c 2
 477.455078125 74.6943359375 l 2
 477.455078125 44.0283203125 452.59375 19.1669921875 421.927734375 19.1669921875 c 2
 105.525390625 19.1669921875 l 2
 74.859375 19.1669921875 49.998046875 44.0283203125 49.998046875 74.6943359375 c 2
 49.998046875 360.495117188 l 2
 49.998046875 391.0859375 74.7412109375 415.915039062 105.33203125 416.0234375 c 2
 421.734375 417.147460938 l 2
 452.487304688 417.255859375 477.467773438 392.362304688 477.467773438 361.620117188 c 0
 477.467773438 330.954101562 452.606445312 306.092773438 421.940429688 306.092773438 c 2
 228.505859375 306.092773438 l 2
222.666992188 771.087890625 m 0
 195.708007812 771.087890625 171.2890625 789.55078125 164.846679688 816.930664062 c 0
 157.323242188 848.89453125 177.13671875 880.901367188 209.100585938 888.4140625 c 2
 392.860351562 931.651367188 l 2
 424.82421875 939.142578125 456.831054688 919.361328125 464.354492188 887.397460938 c 0
 471.877929688 855.43359375 452.064453125 823.426757812 420.100585938 815.9140625 c 2
 236.340820312 772.676757812 l 2
 231.7578125 771.606445312 227.174804688 771.087890625 222.666992188 771.087890625 c 0
EndSplineSet
Validated: 33
EndChar

StartChar: ecircumflex
Encoding: 234 234 89
Width: 532
Flags: W
LayerCount: 2
Fore
SplineSet
230.551757812 292.33984375 m 2
 199.885742188 292.33984375 175.01171875 267.475585938 175.01171875 236.809570312 c 2
 175.01171875 172.212890625 l 2
 175.01171875 141.546875 199.873046875 116.685546875 230.5390625 116.685546875 c 2
 423.973632812 116.685546875 l 2
 454.639648438 116.685546875 479.500976562 91.82421875 479.500976562 61.158203125 c 2
 479.500976562 60.953125 l 2
 479.500976562 30.287109375 454.639648438 5.42578125 423.973632812 5.42578125 c 2
 107.571289062 5.42578125 l 2
 76.9052734375 5.42578125 52.0439453125 30.287109375 52.0439453125 60.953125 c 2
 52.0439453125 346.75390625 l 2
 52.0439453125 377.344726562 76.787109375 402.173828125 107.377929688 402.282226562 c 2
 423.780273438 403.395507812 l 2
 454.533203125 403.50390625 479.513671875 378.609375 479.513671875 347.8671875 c 0
 479.513671875 317.201171875 454.65234375 292.33984375 423.986328125 292.33984375 c 2
 230.551757812 292.33984375 l 2
424.805664062 696.392578125 m 2
 455.471679688 696.392578125 480.333007812 671.53125 480.333007812 640.865234375 c 2
 480.333007812 640.670898438 l 2
 480.333007812 610.004882812 455.471679688 585.143554688 424.805664062 585.143554688 c 2
 107.58203125 585.143554688 l 2
 76.916015625 585.143554688 52.0546875 610.004882812 52.0546875 640.670898438 c 2
 52.0546875 640.865234375 l 2
 52.0546875 671.53125 76.916015625 696.392578125 107.58203125 696.392578125 c 2
 424.805664062 696.392578125 l 2
124.780273438 759.357421875 m 2
 93.0439453125 750.904296875 60.4755859375 769.75390625 52.033203125 801.479492188 c 0
 43.5693359375 833.194335938 62.431640625 865.7734375 94.1572265625 874.237304688 c 2
 256.297851562 917.474609375 l 2
 266.685546875 920.2421875 277.614257812 920.14453125 287.948242188 917.193359375 c 2
 439.280273438 873.956054688 l 2
 470.854492188 864.94140625 489.1328125 832.038085938 480.118164062 800.463867188 c 0
 472.6484375 774.348632812 448.845703125 757.334960938 422.978515625 757.334960938 c 0
 417.563476562 757.334960938 412.072265625 758.0703125 406.61328125 759.637695312 c 2
 271.063476562 798.357421875 l 1
 124.780273438 759.357421875 l 2
EndSplineSet
Validated: 33
EndChar

StartChar: icircumflex
Encoding: 238 238 90
Width: 532
Flags: W
LayerCount: 2
Fore
SplineSet
266.22265625 692.666015625 m 0
 300.174804688 692.666015625 327.706054688 665.134765625 327.706054688 631.182617188 c 2
 327.706054688 63.169921875 l 2
 327.706054688 29.2177734375 300.174804688 1.6865234375 266.22265625 1.6865234375 c 0
 232.270507812 1.6865234375 204.739257812 29.2177734375 204.739257812 63.169921875 c 2
 204.739257812 631.182617188 l 2
 204.739257812 665.134765625 232.270507812 692.666015625 266.22265625 692.666015625 c 0
439.28125 873.9609375 m 2
 470.85546875 864.946289062 489.14453125 832.041015625 480.129882812 800.466796875 c 0
 472.66015625 774.3515625 448.857421875 757.337890625 422.990234375 757.337890625 c 0
 417.575195312 757.337890625 412.083984375 758.073242188 406.625 759.640625 c 2
 271.075195312 798.360351562 l 1
 124.791992188 759.360351562 l 2
 93.06640625 750.907226562 60.498046875 769.758789062 52.0341796875 801.484375 c 0
 43.5703125 833.19921875 62.4326171875 865.778320312 94.158203125 874.2421875 c 2
 256.298828125 917.479492188 l 2
 266.686523438 920.247070312 277.615234375 920.149414062 287.94921875 917.198242188 c 2
 439.28125 873.9609375 l 2
EndSplineSet
Validated: 33
EndChar

StartChar: ugrave
Encoding: 249 249 91
Width: 723
Flags: W
LayerCount: 2
Fore
SplineSet
615.504882812 706.041015625 m 0
 647.068359375 706.041015625 672.654296875 680.455078125 672.654296875 648.891601562 c 2
 672.654296875 72.220703125 l 2
 672.654296875 40.6572265625 647.068359375 15.0712890625 615.504882812 15.0712890625 c 2
 107.149414062 15.0712890625 l 2
 75.5859375 15.0712890625 50 40.6572265625 50 72.220703125 c 2
 50 648.891601562 l 2
 50 680.455078125 75.5859375 706.041015625 107.149414062 706.041015625 c 2
 109.959960938 706.041015625 l 2
 141.5234375 706.041015625 167.109375 680.455078125 167.109375 648.891601562 c 2
 167.109375 189.67578125 l 2
 167.109375 158.166015625 192.608398438 132.6015625 224.118164062 132.526367188 c 2
 499.498046875 131.834960938 l 2
 531.040039062 131.759765625 556.6796875 157.248046875 556.788085938 188.790039062 c 2
 558.35546875 649.086914062 l 2
 558.463867188 680.57421875 584.017578125 706.041015625 615.504882812 706.041015625 c 0
265.77734375 815.918945312 m 2
 233.825195312 823.442382812 214.01171875 855.450195312 221.524414062 887.40234375 c 0
 229.05859375 919.366210938 261.09765625 939.13671875 293.017578125 931.65625 c 2
 476.77734375 888.418945312 l 2
 508.729492188 880.90625 528.54296875 848.899414062 521.030273438 816.935546875 c 0
 514.587890625 789.555664062 490.169921875 771.092773438 463.2109375 771.092773438 c 0
 458.692382812 771.092773438 454.120117188 771.600585938 449.537109375 772.681640625 c 2
 265.77734375 815.918945312 l 2
EndSplineSet
Validated: 33
EndChar
